<?xml version="1.0" encoding="UTF-8"?>
<svg xmlns="http://www.w3.org/2000/svg" viewBox="0 0 1200 1200" width="1200" height="1200">
  <defs>
    <linearGradient id="g" x1="0" y1="0" x2="1" y2="1">
      <stop offset="0%" stop-color="#8B5CF6"/>
      <stop offset="100%" stop-color="#06FFF0"/>
    </linearGradient>
    <filter id="glow">
      <feGaussianBlur stdDeviation="8" result="b"/>
      <feMerge><feMergeNode in="b"/><feMergeNode in="SourceGraphic"/></feMerge>
    </filter>
  </defs>
  <rect width="1200" height="1200" fill="#0B0F16"/>
  <g opacity="0.2"><circle cx="481" cy="954" r="5" fill="#8B5CF6"/><circle cx="1053" cy="330" r="8" fill="#06FFF0"/><circle cx="281" cy="414" r="4" fill="#8B5CF6"/><circle cx="512" cy="673" r="2" fill="#06FFF0"/><circle cx="824" cy="440" r="6" fill="#8B5CF6"/><circle cx="972" cy="339" r="4" fill="#06FFF0"/><circle cx="393" cy="711" r="6" fill="#8B5CF6"/><circle cx="712" cy="834" r="5" fill="#06FFF0"/><circle cx="119" cy="1008" r="9" fill="#8B5CF6"/><circle cx="816" cy="620" r="4" fill="#06FFF0"/><circle cx="224" cy="576" r="3" fill="#8B5CF6"/><circle cx="224" cy="147" r="6" fill="#06FFF0"/><circle cx="769" cy="65" r="8" fill="#8B5CF6"/><circle cx="571" cy="402" r="5" fill="#06FFF0"/><circle cx="1127" cy="421" r="12" fill="#8B5CF6"/><circle cx="464" cy="640" r="12" fill="#06FFF0"/><circle cx="448" cy="396" r="5" fill="#8B5CF6"/><circle cx="149" cy="878" r="11" fill="#06FFF0"/><circle cx="138" cy="763" r="4" fill="#8B5CF6"/><circle cx="82" cy="883" r="12" fill="#06FFF0"/><circle cx="848" cy="127" r="2" fill="#8B5CF6"/><circle cx="258" cy="804" r="7" fill="#06FFF0"/><circle cx="869" cy="214" r="4" fill="#8B5CF6"/><circle cx="102" cy="942" r="3" fill="#06FFF0"/><circle cx="1095" cy="73" r="7" fill="#8B5CF6"/><circle cx="1066" cy="492" r="12" fill="#06FFF0"/><circle cx="1003" cy="125" r="9" fill="#8B5CF6"/><circle cx="273" cy="512" r="11" fill="#06FFF0"/><circle cx="1055" cy="889" r="8" fill="#8B5CF6"/><circle cx="539" cy="788" r="2" fill="#06FFF0"/><circle cx="559" cy="579" r="3" fill="#8B5CF6"/><circle cx="185" cy="794" r="5" fill="#06FFF0"/><circle cx="580" cy="811" r="7" fill="#8B5CF6"/><circle cx="957" cy="918" r="6" fill="#06FFF0"/><circle cx="74" cy="310" r="5" fill="#8B5CF6"/><circle cx="194" cy="122" r="8" fill="#06FFF0"/><circle cx="434" cy="933" r="2" fill="#8B5CF6"/><circle cx="736" cy="218" r="2" fill="#06FFF0"/><circle cx="679" cy="80" r="8" fill="#8B5CF6"/><circle cx="909" cy="196" r="9" fill="#06FFF0"/><circle cx="1061" cy="952" r="5" fill="#8B5CF6"/><circle cx="1110" cy="425" r="6" fill="#06FFF0"/><circle cx="766" cy="441" r="2" fill="#8B5CF6"/><circle cx="1074" cy="452" r="8" fill="#06FFF0"/><circle cx="68" cy="936" r="5" fill="#8B5CF6"/><circle cx="442" cy="420" r="9" fill="#06FFF0"/><circle cx="913" cy="403" r="5" fill="#8B5CF6"/><circle cx="636" cy="188" r="8" fill="#06FFF0"/><circle cx="1008" cy="235" r="2" fill="#8B5CF6"/><circle cx="802" cy="609" r="12" fill="#06FFF0"/><circle cx="197" cy="668" r="2" fill="#8B5CF6"/><circle cx="227" cy="317" r="9" fill="#06FFF0"/><circle cx="211" cy="1042" r="8" fill="#8B5CF6"/><circle cx="92" cy="98" r="12" fill="#06FFF0"/><circle cx="1064" cy="689" r="3" fill="#8B5CF6"/><circle cx="591" cy="112" r="5" fill="#06FFF0"/><circle cx="314" cy="330" r="11" fill="#8B5CF6"/><circle cx="745" cy="1070" r="6" fill="#06FFF0"/><circle cx="810" cy="766" r="4" fill="#8B5CF6"/><circle cx="58" cy="832" r="2" fill="#06FFF0"/><circle cx="402" cy="497" r="2" fill="#8B5CF6"/><circle cx="1002" cy="144" r="2" fill="#06FFF0"/><circle cx="839" cy="496" r="10" fill="#8B5CF6"/><circle cx="462" cy="122" r="4" fill="#06FFF0"/><circle cx="827" cy="120" r="2" fill="#8B5CF6"/><circle cx="467" cy="818" r="5" fill="#06FFF0"/><circle cx="547" cy="90" r="9" fill="#8B5CF6"/><circle cx="1003" cy="112" r="10" fill="#06FFF0"/><circle cx="1106" cy="92" r="3" fill="#8B5CF6"/><circle cx="790" cy="664" r="6" fill="#06FFF0"/><circle cx="546" cy="574" r="12" fill="#8B5CF6"/><circle cx="1089" cy="346" r="9" fill="#06FFF0"/><circle cx="1060" cy="795" r="2" fill="#8B5CF6"/><circle cx="667" cy="1022" r="11" fill="#06FFF0"/><circle cx="185" cy="1050" r="12" fill="#8B5CF6"/><circle cx="1083" cy="178" r="11" fill="#06FFF0"/><circle cx="645" cy="1148" r="11" fill="#8B5CF6"/><circle cx="182" cy="543" r="12" fill="#06FFF0"/><circle cx="784" cy="1120" r="2" fill="#8B5CF6"/><circle cx="389" cy="661" r="10" fill="#06FFF0"/><circle cx="208" cy="1008" r="11" fill="#8B5CF6"/><circle cx="954" cy="902" r="11" fill="#06FFF0"/><circle cx="481" cy="1115" r="10" fill="#8B5CF6"/><circle cx="1058" cy="533" r="11" fill="#06FFF0"/><circle cx="542" cy="619" r="9" fill="#8B5CF6"/><circle cx="810" cy="860" r="6" fill="#06FFF0"/><circle cx="181" cy="1100" r="9" fill="#8B5CF6"/><circle cx="1114" cy="827" r="6" fill="#06FFF0"/><circle cx="820" cy="435" r="11" fill="#8B5CF6"/><circle cx="338" cy="1019" r="10" fill="#06FFF0"/><circle cx="544" cy="892" r="10" fill="#8B5CF6"/><circle cx="417" cy="130" r="11" fill="#06FFF0"/><circle cx="516" cy="985" r="9" fill="#8B5CF6"/><circle cx="138" cy="474" r="8" fill="#06FFF0"/><circle cx="674" cy="901" r="4" fill="#8B5CF6"/><circle cx="619" cy="914" r="3" fill="#06FFF0"/><circle cx="1131" cy="555" r="7" fill="#8B5CF6"/><circle cx="994" cy="544" r="12" fill="#06FFF0"/><circle cx="712" cy="958" r="8" fill="#8B5CF6"/><circle cx="886" cy="491" r="12" fill="#06FFF0"/><circle cx="1069" cy="499" r="2" fill="#8B5CF6"/><circle cx="195" cy="538" r="9" fill="#06FFF0"/><circle cx="714" cy="218" r="2" fill="#8B5CF6"/><circle cx="943" cy="688" r="5" fill="#06FFF0"/><circle cx="91" cy="843" r="11" fill="#8B5CF6"/><circle cx="398" cy="509" r="2" fill="#06FFF0"/><circle cx="657" cy="510" r="11" fill="#8B5CF6"/><circle cx="257" cy="336" r="12" fill="#06FFF0"/><circle cx="363" cy="882" r="10" fill="#8B5CF6"/><circle cx="951" cy="385" r="10" fill="#06FFF0"/><circle cx="500" cy="827" r="6" fill="#8B5CF6"/><circle cx="997" cy="418" r="8" fill="#06FFF0"/><circle cx="212" cy="563" r="11" fill="#8B5CF6"/><circle cx="285" cy="849" r="3" fill="#06FFF0"/><circle cx="628" cy="83" r="2" fill="#8B5CF6"/><circle cx="169" cy="717" r="9" fill="#06FFF0"/><circle cx="1013" cy="611" r="12" fill="#8B5CF6"/><circle cx="966" cy="917" r="2" fill="#06FFF0"/><circle cx="829" cy="1085" r="11" fill="#8B5CF6"/><circle cx="217" cy="537" r="3" fill="#06FFF0"/><circle cx="419" cy="484" r="10" fill="#8B5CF6"/><circle cx="89" cy="481" r="9" fill="#06FFF0"/><circle cx="887" cy="450" r="5" fill="#8B5CF6"/><circle cx="532" cy="1036" r="9" fill="#06FFF0"/><circle cx="829" cy="685" r="5" fill="#8B5CF6"/><circle cx="918" cy="1106" r="10" fill="#06FFF0"/><circle cx="816" cy="818" r="12" fill="#8B5CF6"/><circle cx="301" cy="1083" r="6" fill="#06FFF0"/><circle cx="524" cy="191" r="2" fill="#8B5CF6"/><circle cx="308" cy="236" r="5" fill="#06FFF0"/><circle cx="339" cy="241" r="8" fill="#8B5CF6"/><circle cx="500" cy="1016" r="8" fill="#06FFF0"/><circle cx="869" cy="1120" r="3" fill="#8B5CF6"/><circle cx="506" cy="282" r="9" fill="#06FFF0"/><circle cx="748" cy="1067" r="7" fill="#8B5CF6"/><circle cx="912" cy="796" r="8" fill="#06FFF0"/><circle cx="1101" cy="745" r="4" fill="#8B5CF6"/><circle cx="773" cy="1105" r="6" fill="#06FFF0"/><circle cx="400" cy="1114" r="5" fill="#8B5CF6"/><circle cx="436" cy="892" r="3" fill="#06FFF0"/><circle cx="350" cy="456" r="5" fill="#8B5CF6"/><circle cx="839" cy="717" r="9" fill="#06FFF0"/><circle cx="395" cy="346" r="2" fill="#8B5CF6"/><circle cx="1143" cy="380" r="12" fill="#06FFF0"/><circle cx="820" cy="492" r="10" fill="#8B5CF6"/><circle cx="570" cy="132" r="10" fill="#06FFF0"/><circle cx="651" cy="901" r="3" fill="#8B5CF6"/><circle cx="933" cy="86" r="8" fill="#06FFF0"/><circle cx="355" cy="720" r="10" fill="#8B5CF6"/><circle cx="921" cy="957" r="8" fill="#06FFF0"/></g>
  <text x="600" y="545" text-anchor="middle" font-family="Arial,sans-serif" font-weight="900" font-size="100" fill="url(#g)" filter="url(#glow)">20 Jahre RDMC</text><text x="600" y="655" text-anchor="middle" font-family="Arial,sans-serif" font-weight="900" font-size="100" fill="url(#g)" filter="url(#glow)">Oldenburg</text>
  <text x="600" y="805" text-anchor="middle" font-family="Arial,sans-serif" font-weight="700" font-size="54" fill="#E5E7EB" opacity="0.85">
    Michael Ostermann · Gemischt
  </text>
</svg>