<?xml version="1.0" encoding="UTF-8"?>
<svg xmlns="http://www.w3.org/2000/svg" viewBox="0 0 1200 1200" width="1200" height="1200">
  <defs>
    <linearGradient id="g" x1="0" y1="0" x2="1" y2="1">
      <stop offset="0%" stop-color="#8B5CF6"/>
      <stop offset="100%" stop-color="#06FFF0"/>
    </linearGradient>
    <filter id="glow">
      <feGaussianBlur stdDeviation="8" result="b"/>
      <feMerge><feMergeNode in="b"/><feMergeNode in="SourceGraphic"/></feMerge>
    </filter>
  </defs>
  <rect width="1200" height="1200" fill="#0B0F16"/>
  <g opacity="0.12"><rect x="343" y="733" width="55" height="55" fill="#8B5CF6"/><rect x="323" y="658" width="58" height="58" fill="#06FFF0"/><rect x="1035" y="680" width="32" height="32" fill="url(#g)"/><rect x="1133" y="274" width="51" height="51" fill="#8B5CF6"/><rect x="1096" y="767" width="36" height="36" fill="#06FFF0"/><rect x="230" y="784" width="40" height="40" fill="url(#g)"/><rect x="589" y="374" width="40" height="40" fill="#8B5CF6"/><rect x="908" y="281" width="27" height="27" fill="#06FFF0"/><rect x="170" y="637" width="29" height="29" fill="url(#g)"/><rect x="212" y="265" width="56" height="56" fill="#8B5CF6"/><rect x="227" y="125" width="30" height="30" fill="#06FFF0"/><rect x="395" y="763" width="54" height="54" fill="url(#g)"/><rect x="743" y="249" width="31" height="31" fill="#8B5CF6"/><rect x="1086" y="711" width="60" height="60" fill="#06FFF0"/><rect x="734" y="810" width="42" height="42" fill="url(#g)"/><rect x="654" y="108" width="20" height="20" fill="#8B5CF6"/><rect x="920" y="778" width="44" height="44" fill="#06FFF0"/><rect x="1025" y="1142" width="58" height="58" fill="url(#g)"/><rect x="280" y="675" width="38" height="38" fill="#8B5CF6"/><rect x="102" y="1046" width="57" height="57" fill="#06FFF0"/><rect x="659" y="271" width="48" height="48" fill="url(#g)"/><rect x="191" y="153" width="45" height="45" fill="#8B5CF6"/><rect x="146" y="628" width="35" height="35" fill="#06FFF0"/><rect x="54" y="525" width="23" height="23" fill="url(#g)"/><rect x="950" y="605" width="23" height="23" fill="#8B5CF6"/><rect x="612" y="816" width="42" height="42" fill="#06FFF0"/><rect x="482" y="955" width="38" height="38" fill="url(#g)"/><rect x="862" y="56" width="41" height="41" fill="#8B5CF6"/><rect x="811" y="1111" width="46" height="46" fill="#06FFF0"/><rect x="732" y="68" width="27" height="27" fill="url(#g)"/><rect x="1131" y="1050" width="20" height="20" fill="#8B5CF6"/><rect x="958" y="947" width="20" height="20" fill="#06FFF0"/><rect x="613" y="432" width="41" height="41" fill="url(#g)"/><rect x="994" y="478" width="43" height="43" fill="#8B5CF6"/><rect x="1131" y="331" width="43" height="43" fill="#06FFF0"/><rect x="1137" y="475" width="40" height="40" fill="url(#g)"/><rect x="1079" y="894" width="26" height="26" fill="#8B5CF6"/><rect x="574" y="70" width="49" height="49" fill="#06FFF0"/><rect x="805" y="1053" width="25" height="25" fill="url(#g)"/><rect x="503" y="623" width="29" height="29" fill="#8B5CF6"/><rect x="108" y="182" width="30" height="30" fill="#06FFF0"/><rect x="987" y="299" width="28" height="28" fill="url(#g)"/><rect x="1041" y="1070" width="46" height="46" fill="#8B5CF6"/><rect x="229" y="121" width="53" height="53" fill="#06FFF0"/><rect x="201" y="131" width="23" height="23" fill="url(#g)"/><rect x="144" y="928" width="38" height="38" fill="#8B5CF6"/><rect x="470" y="919" width="43" height="43" fill="#06FFF0"/><rect x="773" y="526" width="23" height="23" fill="url(#g)"/><rect x="989" y="851" width="44" height="44" fill="#8B5CF6"/><rect x="177" y="528" width="40" height="40" fill="#06FFF0"/><rect x="244" y="314" width="35" height="35" fill="url(#g)"/><rect x="1104" y="846" width="21" height="21" fill="#8B5CF6"/><rect x="957" y="1134" width="55" height="55" fill="#06FFF0"/><rect x="451" y="1114" width="24" height="24" fill="url(#g)"/><rect x="707" y="680" width="21" height="21" fill="#8B5CF6"/><rect x="1007" y="1135" width="32" height="32" fill="#06FFF0"/><rect x="963" y="631" width="27" height="27" fill="url(#g)"/><rect x="508" y="492" width="27" height="27" fill="#8B5CF6"/><rect x="588" y="895" width="56" height="56" fill="#06FFF0"/><rect x="490" y="259" width="28" height="28" fill="url(#g)"/><rect x="1052" y="634" width="51" height="51" fill="#8B5CF6"/><rect x="74" y="76" width="33" height="33" fill="#06FFF0"/><rect x="637" y="268" width="60" height="60" fill="url(#g)"/><rect x="737" y="541" width="59" height="59" fill="#8B5CF6"/><rect x="654" y="554" width="37" height="37" fill="#06FFF0"/><rect x="288" y="351" width="56" height="56" fill="url(#g)"/><rect x="166" y="676" width="24" height="24" fill="#8B5CF6"/><rect x="645" y="1087" width="51" height="51" fill="#06FFF0"/><rect x="746" y="1089" width="24" height="24" fill="url(#g)"/><rect x="136" y="153" width="49" height="49" fill="#8B5CF6"/><rect x="546" y="822" width="60" height="60" fill="#06FFF0"/><rect x="942" y="1123" width="58" height="58" fill="url(#g)"/><rect x="646" y="613" width="41" height="41" fill="#8B5CF6"/><rect x="196" y="76" width="30" height="30" fill="#06FFF0"/><rect x="776" y="389" width="41" height="41" fill="url(#g)"/><rect x="125" y="132" width="48" height="48" fill="#8B5CF6"/><rect x="661" y="780" width="30" height="30" fill="#06FFF0"/><rect x="517" y="516" width="44" height="44" fill="url(#g)"/><rect x="964" y="1114" width="31" height="31" fill="#8B5CF6"/><rect x="826" y="361" width="22" height="22" fill="#06FFF0"/></g>
  <text x="600" y="545" text-anchor="middle" font-family="Arial,sans-serif" font-weight="900" font-size="100" fill="url(#g)" filter="url(#glow)">Brüder aus alter</text><text x="600" y="655" text-anchor="middle" font-family="Arial,sans-serif" font-weight="900" font-size="100" fill="url(#g)" filter="url(#glow)">Zeit</text>
  <text x="600" y="805" text-anchor="middle" font-family="Arial,sans-serif" font-weight="700" font-size="54" fill="#E5E7EB" opacity="0.85">
    Michael Ostermann · Gemischt
  </text>
</svg>