<?xml version="1.0" encoding="UTF-8"?>
<svg xmlns="http://www.w3.org/2000/svg" viewBox="0 0 1200 1200" width="1200" height="1200">
  <defs>
    <linearGradient id="g" x1="0" y1="0" x2="1" y2="1">
      <stop offset="0%" stop-color="#06FFF0"/>
      <stop offset="100%" stop-color="#8B5CF6"/>
    </linearGradient>
    <filter id="glow">
      <feGaussianBlur stdDeviation="8" result="b"/>
      <feMerge><feMergeNode in="b"/><feMergeNode in="SourceGraphic"/></feMerge>
    </filter>
  </defs>
  <rect width="1200" height="1200" fill="#0B0F16"/>
  <g opacity="0.2"><circle cx="875" cy="488" r="7" fill="#06FFF0"/><circle cx="498" cy="445" r="5" fill="#8B5CF6"/><circle cx="762" cy="262" r="4" fill="#06FFF0"/><circle cx="374" cy="115" r="10" fill="#8B5CF6"/><circle cx="265" cy="981" r="7" fill="#06FFF0"/><circle cx="290" cy="403" r="12" fill="#8B5CF6"/><circle cx="546" cy="334" r="4" fill="#06FFF0"/><circle cx="564" cy="994" r="2" fill="#8B5CF6"/><circle cx="440" cy="975" r="11" fill="#06FFF0"/><circle cx="723" cy="345" r="10" fill="#8B5CF6"/><circle cx="1080" cy="180" r="11" fill="#06FFF0"/><circle cx="727" cy="494" r="2" fill="#8B5CF6"/><circle cx="927" cy="572" r="9" fill="#06FFF0"/><circle cx="278" cy="316" r="12" fill="#8B5CF6"/><circle cx="599" cy="394" r="3" fill="#06FFF0"/><circle cx="410" cy="627" r="8" fill="#8B5CF6"/><circle cx="910" cy="866" r="6" fill="#06FFF0"/><circle cx="161" cy="1113" r="3" fill="#8B5CF6"/><circle cx="374" cy="563" r="8" fill="#06FFF0"/><circle cx="127" cy="640" r="10" fill="#8B5CF6"/><circle cx="238" cy="475" r="4" fill="#06FFF0"/><circle cx="188" cy="69" r="2" fill="#8B5CF6"/><circle cx="899" cy="817" r="6" fill="#06FFF0"/><circle cx="134" cy="614" r="12" fill="#8B5CF6"/><circle cx="841" cy="320" r="9" fill="#06FFF0"/><circle cx="296" cy="1073" r="5" fill="#8B5CF6"/><circle cx="256" cy="372" r="6" fill="#06FFF0"/><circle cx="684" cy="363" r="12" fill="#8B5CF6"/><circle cx="577" cy="990" r="5" fill="#06FFF0"/><circle cx="591" cy="707" r="2" fill="#8B5CF6"/><circle cx="71" cy="861" r="3" fill="#06FFF0"/><circle cx="402" cy="1011" r="7" fill="#8B5CF6"/><circle cx="416" cy="134" r="2" fill="#06FFF0"/><circle cx="914" cy="810" r="3" fill="#8B5CF6"/><circle cx="111" cy="415" r="3" fill="#06FFF0"/><circle cx="340" cy="1018" r="11" fill="#8B5CF6"/><circle cx="158" cy="936" r="10" fill="#06FFF0"/><circle cx="926" cy="715" r="3" fill="#8B5CF6"/><circle cx="261" cy="345" r="6" fill="#06FFF0"/><circle cx="1126" cy="1081" r="3" fill="#8B5CF6"/><circle cx="589" cy="409" r="8" fill="#06FFF0"/><circle cx="528" cy="604" r="8" fill="#8B5CF6"/><circle cx="519" cy="1098" r="8" fill="#06FFF0"/><circle cx="394" cy="231" r="12" fill="#8B5CF6"/><circle cx="928" cy="340" r="9" fill="#06FFF0"/><circle cx="998" cy="896" r="8" fill="#8B5CF6"/><circle cx="388" cy="610" r="9" fill="#06FFF0"/><circle cx="920" cy="822" r="3" fill="#8B5CF6"/><circle cx="817" cy="193" r="9" fill="#06FFF0"/><circle cx="215" cy="1035" r="6" fill="#8B5CF6"/><circle cx="538" cy="410" r="4" fill="#06FFF0"/><circle cx="346" cy="877" r="11" fill="#8B5CF6"/><circle cx="909" cy="952" r="7" fill="#06FFF0"/><circle cx="403" cy="958" r="3" fill="#8B5CF6"/><circle cx="468" cy="802" r="8" fill="#06FFF0"/><circle cx="403" cy="1128" r="10" fill="#8B5CF6"/><circle cx="956" cy="290" r="3" fill="#06FFF0"/><circle cx="947" cy="795" r="9" fill="#8B5CF6"/><circle cx="822" cy="339" r="9" fill="#06FFF0"/><circle cx="734" cy="281" r="12" fill="#8B5CF6"/><circle cx="947" cy="1132" r="2" fill="#06FFF0"/><circle cx="698" cy="464" r="5" fill="#8B5CF6"/><circle cx="941" cy="181" r="8" fill="#06FFF0"/><circle cx="1086" cy="771" r="3" fill="#8B5CF6"/><circle cx="159" cy="608" r="7" fill="#06FFF0"/><circle cx="710" cy="997" r="10" fill="#8B5CF6"/><circle cx="401" cy="529" r="9" fill="#06FFF0"/><circle cx="979" cy="173" r="6" fill="#8B5CF6"/><circle cx="515" cy="548" r="3" fill="#06FFF0"/><circle cx="71" cy="411" r="10" fill="#8B5CF6"/><circle cx="207" cy="683" r="9" fill="#06FFF0"/><circle cx="274" cy="1092" r="7" fill="#8B5CF6"/><circle cx="540" cy="106" r="11" fill="#06FFF0"/><circle cx="1087" cy="1142" r="11" fill="#8B5CF6"/><circle cx="747" cy="1065" r="12" fill="#06FFF0"/><circle cx="1033" cy="272" r="11" fill="#8B5CF6"/><circle cx="963" cy="1063" r="2" fill="#06FFF0"/><circle cx="747" cy="828" r="6" fill="#8B5CF6"/><circle cx="889" cy="56" r="7" fill="#06FFF0"/><circle cx="244" cy="352" r="5" fill="#8B5CF6"/><circle cx="1122" cy="584" r="11" fill="#06FFF0"/><circle cx="211" cy="702" r="9" fill="#8B5CF6"/><circle cx="1007" cy="741" r="3" fill="#06FFF0"/><circle cx="82" cy="206" r="6" fill="#8B5CF6"/><circle cx="831" cy="928" r="3" fill="#06FFF0"/><circle cx="91" cy="512" r="7" fill="#8B5CF6"/><circle cx="497" cy="1055" r="8" fill="#06FFF0"/><circle cx="1054" cy="1050" r="10" fill="#8B5CF6"/><circle cx="387" cy="108" r="6" fill="#06FFF0"/><circle cx="494" cy="449" r="12" fill="#8B5CF6"/><circle cx="834" cy="522" r="8" fill="#06FFF0"/><circle cx="1038" cy="447" r="12" fill="#8B5CF6"/><circle cx="897" cy="905" r="7" fill="#06FFF0"/><circle cx="424" cy="805" r="10" fill="#8B5CF6"/><circle cx="203" cy="1020" r="12" fill="#06FFF0"/><circle cx="110" cy="875" r="11" fill="#8B5CF6"/><circle cx="178" cy="401" r="4" fill="#06FFF0"/><circle cx="247" cy="227" r="11" fill="#8B5CF6"/><circle cx="846" cy="167" r="10" fill="#06FFF0"/><circle cx="836" cy="485" r="10" fill="#8B5CF6"/><circle cx="208" cy="1052" r="11" fill="#06FFF0"/><circle cx="881" cy="914" r="5" fill="#8B5CF6"/><circle cx="236" cy="396" r="12" fill="#06FFF0"/><circle cx="1124" cy="755" r="2" fill="#8B5CF6"/><circle cx="87" cy="155" r="4" fill="#06FFF0"/><circle cx="388" cy="788" r="8" fill="#8B5CF6"/><circle cx="911" cy="59" r="8" fill="#06FFF0"/><circle cx="540" cy="1135" r="6" fill="#8B5CF6"/><circle cx="102" cy="1106" r="5" fill="#06FFF0"/><circle cx="586" cy="472" r="7" fill="#8B5CF6"/><circle cx="136" cy="860" r="5" fill="#06FFF0"/><circle cx="419" cy="165" r="9" fill="#8B5CF6"/><circle cx="1103" cy="1099" r="2" fill="#06FFF0"/><circle cx="260" cy="915" r="3" fill="#8B5CF6"/><circle cx="478" cy="770" r="6" fill="#06FFF0"/><circle cx="307" cy="1132" r="7" fill="#8B5CF6"/><circle cx="1109" cy="1021" r="4" fill="#06FFF0"/><circle cx="546" cy="663" r="7" fill="#8B5CF6"/><circle cx="685" cy="209" r="5" fill="#06FFF0"/><circle cx="730" cy="670" r="5" fill="#8B5CF6"/><circle cx="1033" cy="785" r="7" fill="#06FFF0"/><circle cx="1098" cy="517" r="11" fill="#8B5CF6"/><circle cx="1057" cy="1084" r="12" fill="#06FFF0"/><circle cx="96" cy="226" r="12" fill="#8B5CF6"/><circle cx="505" cy="713" r="9" fill="#06FFF0"/><circle cx="537" cy="738" r="4" fill="#8B5CF6"/><circle cx="149" cy="651" r="7" fill="#06FFF0"/><circle cx="738" cy="554" r="6" fill="#8B5CF6"/><circle cx="593" cy="415" r="2" fill="#06FFF0"/><circle cx="613" cy="1116" r="8" fill="#8B5CF6"/><circle cx="591" cy="657" r="8" fill="#06FFF0"/><circle cx="68" cy="115" r="3" fill="#8B5CF6"/><circle cx="966" cy="154" r="4" fill="#06FFF0"/><circle cx="81" cy="250" r="12" fill="#8B5CF6"/><circle cx="563" cy="126" r="3" fill="#06FFF0"/><circle cx="889" cy="313" r="4" fill="#8B5CF6"/><circle cx="346" cy="890" r="4" fill="#06FFF0"/><circle cx="141" cy="647" r="12" fill="#8B5CF6"/><circle cx="704" cy="1130" r="11" fill="#06FFF0"/><circle cx="790" cy="692" r="12" fill="#8B5CF6"/><circle cx="140" cy="367" r="8" fill="#06FFF0"/><circle cx="157" cy="595" r="12" fill="#8B5CF6"/><circle cx="531" cy="488" r="6" fill="#06FFF0"/><circle cx="365" cy="103" r="6" fill="#8B5CF6"/><circle cx="528" cy="482" r="5" fill="#06FFF0"/><circle cx="605" cy="706" r="12" fill="#8B5CF6"/><circle cx="562" cy="991" r="2" fill="#06FFF0"/><circle cx="1133" cy="1052" r="3" fill="#8B5CF6"/><circle cx="223" cy="264" r="6" fill="#06FFF0"/><circle cx="637" cy="259" r="4" fill="#8B5CF6"/></g>
  <text x="600" y="600" text-anchor="middle" font-family="Arial,sans-serif" font-weight="900" font-size="108" fill="url(#g)" filter="url(#glow)">Chaos Micha</text>
  <text x="600" y="758" text-anchor="middle" font-family="Arial,sans-serif" font-weight="700" font-size="54" fill="#E5E7EB" opacity="0.85">
    Michael Ostermann · Party
  </text>
</svg>