<?xml version="1.0" encoding="UTF-8"?>
<svg xmlns="http://www.w3.org/2000/svg" viewBox="0 0 1200 1200" width="1200" height="1200">
  <defs>
    <linearGradient id="g" x1="0" y1="0" x2="1" y2="1">
      <stop offset="0%" stop-color="#FFD700"/>
      <stop offset="100%" stop-color="#FF8C00"/>
    </linearGradient>
    <filter id="glow">
      <feGaussianBlur stdDeviation="8" result="b"/>
      <feMerge><feMergeNode in="b"/><feMergeNode in="SourceGraphic"/></feMerge>
    </filter>
  </defs>
  <rect width="1200" height="1200" fill="#0B0F16"/>
  <g opacity="0.12"><rect x="183" y="540" width="37" height="37" fill="#FFD700"/><rect x="1050" y="168" width="51" height="51" fill="#FF8C00"/><rect x="804" y="212" width="34" height="34" fill="url(#g)"/><rect x="132" y="1028" width="35" height="35" fill="#FFD700"/><rect x="345" y="117" width="43" height="43" fill="#FF8C00"/><rect x="1023" y="567" width="46" height="46" fill="url(#g)"/><rect x="839" y="798" width="41" height="41" fill="#FFD700"/><rect x="388" y="791" width="25" height="25" fill="#FF8C00"/><rect x="567" y="862" width="23" height="23" fill="url(#g)"/><rect x="589" y="1102" width="22" height="22" fill="#FFD700"/><rect x="939" y="665" width="44" height="44" fill="#FF8C00"/><rect x="174" y="903" width="34" height="34" fill="url(#g)"/><rect x="244" y="820" width="52" height="52" fill="#FFD700"/><rect x="72" y="705" width="56" height="56" fill="#FF8C00"/><rect x="486" y="582" width="45" height="45" fill="url(#g)"/><rect x="362" y="1036" width="34" height="34" fill="#FFD700"/><rect x="88" y="1019" width="57" height="57" fill="#FF8C00"/><rect x="1136" y="1052" width="32" height="32" fill="url(#g)"/><rect x="481" y="275" width="34" height="34" fill="#FFD700"/><rect x="934" y="686" width="44" height="44" fill="#FF8C00"/><rect x="915" y="1041" width="46" height="46" fill="url(#g)"/><rect x="897" y="899" width="53" height="53" fill="#FFD700"/><rect x="808" y="214" width="58" height="58" fill="#FF8C00"/><rect x="336" y="932" width="53" height="53" fill="url(#g)"/><rect x="413" y="141" width="25" height="25" fill="#FFD700"/><rect x="1118" y="1038" width="31" height="31" fill="#FF8C00"/><rect x="590" y="314" width="50" height="50" fill="url(#g)"/><rect x="764" y="608" width="44" height="44" fill="#FFD700"/><rect x="610" y="849" width="51" height="51" fill="#FF8C00"/><rect x="625" y="64" width="56" height="56" fill="url(#g)"/><rect x="685" y="115" width="24" height="24" fill="#FFD700"/><rect x="849" y="224" width="35" height="35" fill="#FF8C00"/><rect x="244" y="452" width="39" height="39" fill="url(#g)"/><rect x="1150" y="874" width="41" height="41" fill="#FFD700"/><rect x="412" y="884" width="34" height="34" fill="#FF8C00"/><rect x="786" y="174" width="47" height="47" fill="url(#g)"/><rect x="290" y="108" width="58" height="58" fill="#FFD700"/><rect x="556" y="298" width="38" height="38" fill="#FF8C00"/><rect x="248" y="341" width="20" height="20" fill="url(#g)"/><rect x="179" y="257" width="32" height="32" fill="#FFD700"/><rect x="669" y="811" width="40" height="40" fill="#FF8C00"/><rect x="200" y="85" width="34" height="34" fill="url(#g)"/><rect x="535" y="237" width="23" height="23" fill="#FFD700"/><rect x="662" y="1036" width="20" height="20" fill="#FF8C00"/><rect x="685" y="221" width="52" height="52" fill="url(#g)"/><rect x="945" y="263" width="48" height="48" fill="#FFD700"/><rect x="113" y="311" width="46" height="46" fill="#FF8C00"/><rect x="738" y="767" width="58" height="58" fill="url(#g)"/><rect x="59" y="62" width="43" height="43" fill="#FFD700"/><rect x="822" y="636" width="55" height="55" fill="#FF8C00"/><rect x="82" y="777" width="45" height="45" fill="url(#g)"/><rect x="763" y="992" width="56" height="56" fill="#FFD700"/><rect x="281" y="844" width="28" height="28" fill="#FF8C00"/><rect x="936" y="686" width="26" height="26" fill="url(#g)"/><rect x="1014" y="133" width="39" height="39" fill="#FFD700"/><rect x="972" y="432" width="48" height="48" fill="#FF8C00"/><rect x="208" y="997" width="55" height="55" fill="url(#g)"/><rect x="416" y="576" width="59" height="59" fill="#FFD700"/><rect x="939" y="642" width="29" height="29" fill="#FF8C00"/><rect x="231" y="399" width="58" height="58" fill="url(#g)"/><rect x="233" y="347" width="47" height="47" fill="#FFD700"/><rect x="721" y="778" width="57" height="57" fill="#FF8C00"/><rect x="724" y="583" width="34" height="34" fill="url(#g)"/><rect x="806" y="299" width="45" height="45" fill="#FFD700"/><rect x="344" y="799" width="35" height="35" fill="#FF8C00"/><rect x="925" y="575" width="49" height="49" fill="url(#g)"/><rect x="196" y="770" width="55" height="55" fill="#FFD700"/><rect x="954" y="585" width="24" height="24" fill="#FF8C00"/><rect x="638" y="1000" width="55" height="55" fill="url(#g)"/><rect x="1086" y="135" width="38" height="38" fill="#FFD700"/><rect x="363" y="630" width="45" height="45" fill="#FF8C00"/><rect x="368" y="161" width="33" height="33" fill="url(#g)"/><rect x="346" y="1031" width="51" height="51" fill="#FFD700"/><rect x="325" y="732" width="59" height="59" fill="#FF8C00"/><rect x="111" y="498" width="56" height="56" fill="url(#g)"/><rect x="163" y="919" width="43" height="43" fill="#FFD700"/><rect x="358" y="841" width="45" height="45" fill="#FF8C00"/><rect x="524" y="694" width="53" height="53" fill="url(#g)"/><rect x="359" y="914" width="52" height="52" fill="#FFD700"/><rect x="146" y="964" width="22" height="22" fill="#FF8C00"/></g>
  <text x="600" y="545" text-anchor="middle" font-family="Arial,sans-serif" font-weight="900" font-size="100" fill="url(#g)" filter="url(#glow)">Concrete Jungle</text><text x="600" y="655" text-anchor="middle" font-family="Arial,sans-serif" font-weight="900" font-size="100" fill="url(#g)" filter="url(#glow)">Tales</text>
  <text x="600" y="805" text-anchor="middle" font-family="Arial,sans-serif" font-weight="700" font-size="54" fill="#E5E7EB" opacity="0.85">
    Michael Ostermann · Rapp
  </text>
</svg>