<?xml version="1.0" encoding="UTF-8"?>
<svg xmlns="http://www.w3.org/2000/svg" viewBox="0 0 1200 1200" width="1200" height="1200">
  <defs>
    <linearGradient id="g" x1="0" y1="0" x2="1" y2="1">
      <stop offset="0%" stop-color="#FFD700"/>
      <stop offset="100%" stop-color="#FF8C00"/>
    </linearGradient>
    <filter id="glow">
      <feGaussianBlur stdDeviation="8" result="b"/>
      <feMerge><feMergeNode in="b"/><feMergeNode in="SourceGraphic"/></feMerge>
    </filter>
  </defs>
  <rect width="1200" height="1200" fill="#0B0F16"/>
  <g opacity="0.12"><rect x="946" y="936" width="26" height="26" fill="#FFD700"/><rect x="716" y="1002" width="43" height="43" fill="#FF8C00"/><rect x="785" y="1038" width="27" height="27" fill="url(#g)"/><rect x="201" y="997" width="48" height="48" fill="#FFD700"/><rect x="438" y="650" width="33" height="33" fill="#FF8C00"/><rect x="757" y="431" width="51" height="51" fill="url(#g)"/><rect x="861" y="159" width="34" height="34" fill="#FFD700"/><rect x="828" y="245" width="56" height="56" fill="#FF8C00"/><rect x="765" y="821" width="30" height="30" fill="url(#g)"/><rect x="519" y="584" width="40" height="40" fill="#FFD700"/><rect x="396" y="903" width="31" height="31" fill="#FF8C00"/><rect x="89" y="767" width="36" height="36" fill="url(#g)"/><rect x="929" y="1056" width="47" height="47" fill="#FFD700"/><rect x="1004" y="618" width="32" height="32" fill="#FF8C00"/><rect x="870" y="679" width="32" height="32" fill="url(#g)"/><rect x="283" y="1099" width="57" height="57" fill="#FFD700"/><rect x="786" y="138" width="57" height="57" fill="#FF8C00"/><rect x="187" y="131" width="26" height="26" fill="url(#g)"/><rect x="647" y="444" width="57" height="57" fill="#FFD700"/><rect x="238" y="412" width="30" height="30" fill="#FF8C00"/><rect x="686" y="51" width="35" height="35" fill="url(#g)"/><rect x="734" y="257" width="25" height="25" fill="#FFD700"/><rect x="1145" y="926" width="34" height="34" fill="#FF8C00"/><rect x="704" y="492" width="29" height="29" fill="url(#g)"/><rect x="464" y="270" width="38" height="38" fill="#FFD700"/><rect x="589" y="358" width="50" height="50" fill="#FF8C00"/><rect x="458" y="263" width="20" height="20" fill="url(#g)"/><rect x="146" y="959" width="37" height="37" fill="#FFD700"/><rect x="608" y="836" width="29" height="29" fill="#FF8C00"/><rect x="1034" y="1140" width="57" height="57" fill="url(#g)"/><rect x="1058" y="960" width="44" height="44" fill="#FFD700"/><rect x="735" y="990" width="24" height="24" fill="#FF8C00"/><rect x="1128" y="367" width="22" height="22" fill="url(#g)"/><rect x="746" y="212" width="52" height="52" fill="#FFD700"/><rect x="514" y="277" width="35" height="35" fill="#FF8C00"/><rect x="583" y="992" width="46" height="46" fill="url(#g)"/><rect x="236" y="309" width="59" height="59" fill="#FFD700"/><rect x="797" y="691" width="40" height="40" fill="#FF8C00"/><rect x="651" y="1030" width="55" height="55" fill="url(#g)"/><rect x="85" y="967" width="20" height="20" fill="#FFD700"/><rect x="781" y="861" width="30" height="30" fill="#FF8C00"/><rect x="485" y="868" width="33" height="33" fill="url(#g)"/><rect x="1087" y="266" width="45" height="45" fill="#FFD700"/><rect x="884" y="579" width="21" height="21" fill="#FF8C00"/><rect x="829" y="425" width="43" height="43" fill="url(#g)"/><rect x="566" y="210" width="27" height="27" fill="#FFD700"/><rect x="241" y="971" width="47" height="47" fill="#FF8C00"/><rect x="98" y="176" width="29" height="29" fill="url(#g)"/><rect x="509" y="958" width="47" height="47" fill="#FFD700"/><rect x="520" y="782" width="33" height="33" fill="#FF8C00"/><rect x="1011" y="915" width="21" height="21" fill="url(#g)"/><rect x="234" y="977" width="35" height="35" fill="#FFD700"/><rect x="940" y="215" width="23" height="23" fill="#FF8C00"/><rect x="272" y="772" width="38" height="38" fill="url(#g)"/><rect x="102" y="695" width="49" height="49" fill="#FFD700"/><rect x="307" y="1096" width="57" height="57" fill="#FF8C00"/><rect x="444" y="630" width="48" height="48" fill="url(#g)"/><rect x="966" y="674" width="40" height="40" fill="#FFD700"/><rect x="780" y="850" width="21" height="21" fill="#FF8C00"/><rect x="565" y="1141" width="55" height="55" fill="url(#g)"/><rect x="488" y="839" width="30" height="30" fill="#FFD700"/><rect x="653" y="609" width="52" height="52" fill="#FF8C00"/><rect x="296" y="604" width="36" height="36" fill="url(#g)"/><rect x="457" y="887" width="56" height="56" fill="#FFD700"/><rect x="90" y="618" width="44" height="44" fill="#FF8C00"/><rect x="800" y="502" width="46" height="46" fill="url(#g)"/><rect x="407" y="1130" width="54" height="54" fill="#FFD700"/><rect x="904" y="773" width="40" height="40" fill="#FF8C00"/><rect x="958" y="1033" width="51" height="51" fill="url(#g)"/><rect x="847" y="682" width="50" height="50" fill="#FFD700"/><rect x="479" y="733" width="48" height="48" fill="#FF8C00"/><rect x="409" y="730" width="60" height="60" fill="url(#g)"/><rect x="512" y="215" width="30" height="30" fill="#FFD700"/><rect x="289" y="758" width="53" height="53" fill="#FF8C00"/><rect x="577" y="140" width="41" height="41" fill="url(#g)"/><rect x="246" y="935" width="57" height="57" fill="#FFD700"/><rect x="995" y="938" width="45" height="45" fill="#FF8C00"/><rect x="191" y="171" width="56" height="56" fill="url(#g)"/><rect x="630" y="419" width="42" height="42" fill="#FFD700"/><rect x="62" y="424" width="60" height="60" fill="#FF8C00"/></g>
  <text x="600" y="545" text-anchor="middle" font-family="Arial,sans-serif" font-weight="900" font-size="100" fill="url(#g)" filter="url(#glow)">Concrete Jungle</text><text x="600" y="655" text-anchor="middle" font-family="Arial,sans-serif" font-weight="900" font-size="100" fill="url(#g)" filter="url(#glow)">Tales</text>
  <text x="600" y="805" text-anchor="middle" font-family="Arial,sans-serif" font-weight="700" font-size="54" fill="#E5E7EB" opacity="0.85">
    Michael Ostermann · Rapp
  </text>
</svg>