<?xml version="1.0" encoding="UTF-8"?>
<svg xmlns="http://www.w3.org/2000/svg" viewBox="0 0 1200 1200" width="1200" height="1200">
  <defs>
    <linearGradient id="g" x1="0" y1="0" x2="1" y2="1">
      <stop offset="0%" stop-color="#4A5568"/>
      <stop offset="100%" stop-color="#718096"/>
    </linearGradient>
    <filter id="glow">
      <feGaussianBlur stdDeviation="8" result="b"/>
      <feMerge><feMergeNode in="b"/><feMergeNode in="SourceGraphic"/></feMerge>
    </filter>
  </defs>
  <rect width="1200" height="1200" fill="#0B0F16"/>
  <g opacity="0.12"><rect x="1076" y="725" width="60" height="60" fill="#4A5568"/><rect x="352" y="601" width="37" height="37" fill="#718096"/><rect x="908" y="528" width="29" height="29" fill="url(#g)"/><rect x="912" y="971" width="23" height="23" fill="#4A5568"/><rect x="765" y="358" width="43" height="43" fill="#718096"/><rect x="803" y="965" width="51" height="51" fill="url(#g)"/><rect x="917" y="104" width="21" height="21" fill="#4A5568"/><rect x="1113" y="594" width="38" height="38" fill="#718096"/><rect x="712" y="123" width="55" height="55" fill="url(#g)"/><rect x="387" y="460" width="38" height="38" fill="#4A5568"/><rect x="1122" y="843" width="38" height="38" fill="#718096"/><rect x="864" y="234" width="34" height="34" fill="url(#g)"/><rect x="723" y="957" width="32" height="32" fill="#4A5568"/><rect x="228" y="713" width="31" height="31" fill="#718096"/><rect x="791" y="1142" width="41" height="41" fill="url(#g)"/><rect x="868" y="1133" width="39" height="39" fill="#4A5568"/><rect x="600" y="882" width="26" height="26" fill="#718096"/><rect x="495" y="818" width="35" height="35" fill="url(#g)"/><rect x="568" y="834" width="42" height="42" fill="#4A5568"/><rect x="278" y="839" width="41" height="41" fill="#718096"/><rect x="538" y="165" width="39" height="39" fill="url(#g)"/><rect x="712" y="475" width="48" height="48" fill="#4A5568"/><rect x="1116" y="1055" width="32" height="32" fill="#718096"/><rect x="430" y="999" width="40" height="40" fill="url(#g)"/><rect x="681" y="605" width="38" height="38" fill="#4A5568"/><rect x="693" y="1005" width="48" height="48" fill="#718096"/><rect x="898" y="113" width="40" height="40" fill="url(#g)"/><rect x="754" y="888" width="41" height="41" fill="#4A5568"/><rect x="752" y="259" width="47" height="47" fill="#718096"/><rect x="392" y="342" width="23" height="23" fill="url(#g)"/><rect x="960" y="909" width="24" height="24" fill="#4A5568"/><rect x="352" y="258" width="30" height="30" fill="#718096"/><rect x="147" y="985" width="58" height="58" fill="url(#g)"/><rect x="280" y="842" width="29" height="29" fill="#4A5568"/><rect x="313" y="966" width="53" height="53" fill="#718096"/><rect x="779" y="905" width="27" height="27" fill="url(#g)"/><rect x="1129" y="1100" width="55" height="55" fill="#4A5568"/><rect x="726" y="102" width="60" height="60" fill="#718096"/><rect x="86" y="346" width="31" height="31" fill="url(#g)"/><rect x="287" y="383" width="33" height="33" fill="#4A5568"/><rect x="648" y="937" width="21" height="21" fill="#718096"/><rect x="189" y="1054" width="28" height="28" fill="url(#g)"/><rect x="400" y="385" width="28" height="28" fill="#4A5568"/><rect x="697" y="107" width="28" height="28" fill="#718096"/><rect x="1132" y="923" width="24" height="24" fill="url(#g)"/><rect x="956" y="988" width="22" height="22" fill="#4A5568"/><rect x="433" y="715" width="33" height="33" fill="#718096"/><rect x="256" y="616" width="46" height="46" fill="url(#g)"/><rect x="693" y="1015" width="23" height="23" fill="#4A5568"/><rect x="74" y="532" width="54" height="54" fill="#718096"/><rect x="328" y="818" width="32" height="32" fill="url(#g)"/><rect x="153" y="452" width="43" height="43" fill="#4A5568"/><rect x="671" y="491" width="22" height="22" fill="#718096"/><rect x="1050" y="1041" width="58" height="58" fill="url(#g)"/><rect x="105" y="603" width="51" height="51" fill="#4A5568"/><rect x="383" y="126" width="58" height="58" fill="#718096"/><rect x="1079" y="226" width="50" height="50" fill="url(#g)"/><rect x="956" y="359" width="39" height="39" fill="#4A5568"/><rect x="76" y="982" width="52" height="52" fill="#718096"/><rect x="796" y="506" width="46" height="46" fill="url(#g)"/><rect x="561" y="835" width="34" height="34" fill="#4A5568"/><rect x="254" y="291" width="24" height="24" fill="#718096"/><rect x="811" y="396" width="36" height="36" fill="url(#g)"/><rect x="414" y="360" width="37" height="37" fill="#4A5568"/><rect x="305" y="420" width="52" height="52" fill="#718096"/><rect x="130" y="832" width="47" height="47" fill="url(#g)"/><rect x="406" y="1144" width="48" height="48" fill="#4A5568"/><rect x="896" y="1136" width="45" height="45" fill="#718096"/><rect x="57" y="949" width="48" height="48" fill="url(#g)"/><rect x="217" y="500" width="34" height="34" fill="#4A5568"/><rect x="418" y="1021" width="30" height="30" fill="#718096"/><rect x="502" y="985" width="20" height="20" fill="url(#g)"/><rect x="315" y="250" width="27" height="27" fill="#4A5568"/><rect x="226" y="665" width="20" height="20" fill="#718096"/><rect x="95" y="612" width="37" height="37" fill="url(#g)"/><rect x="547" y="133" width="35" height="35" fill="#4A5568"/><rect x="556" y="763" width="23" height="23" fill="#718096"/><rect x="885" y="1043" width="32" height="32" fill="url(#g)"/><rect x="442" y="91" width="52" height="52" fill="#4A5568"/><rect x="730" y="1042" width="41" height="41" fill="#718096"/></g>
  <text x="600" y="545" text-anchor="middle" font-family="Arial,sans-serif" font-weight="900" font-size="100" fill="url(#g)" filter="url(#glow)">Die Nacht zählt</text><text x="600" y="655" text-anchor="middle" font-family="Arial,sans-serif" font-weight="900" font-size="100" fill="url(#g)" filter="url(#glow)">mit uns</text>
  <text x="600" y="805" text-anchor="middle" font-family="Arial,sans-serif" font-weight="700" font-size="54" fill="#E5E7EB" opacity="0.85">
    Michael Ostermann · Traurig
  </text>
</svg>