<?xml version="1.0" encoding="UTF-8"?>
<svg xmlns="http://www.w3.org/2000/svg" viewBox="0 0 1200 1200" width="1200" height="1200">
  <defs>
    <linearGradient id="g" x1="0" y1="0" x2="1" y2="1">
      <stop offset="0%" stop-color="#8B5CF6"/>
      <stop offset="100%" stop-color="#06FFF0"/>
    </linearGradient>
    <filter id="glow">
      <feGaussianBlur stdDeviation="8" result="b"/>
      <feMerge><feMergeNode in="b"/><feMergeNode in="SourceGraphic"/></feMerge>
    </filter>
  </defs>
  <rect width="1200" height="1200" fill="#0B0F16"/>
  <g opacity="0.12"><rect x="518" y="593" width="37" height="37" fill="#8B5CF6"/><rect x="1050" y="385" width="22" height="22" fill="#06FFF0"/><rect x="1140" y="361" width="54" height="54" fill="url(#g)"/><rect x="674" y="502" width="31" height="31" fill="#8B5CF6"/><rect x="861" y="1126" width="50" height="50" fill="#06FFF0"/><rect x="457" y="899" width="51" height="51" fill="url(#g)"/><rect x="611" y="864" width="26" height="26" fill="#8B5CF6"/><rect x="1075" y="269" width="25" height="25" fill="#06FFF0"/><rect x="302" y="634" width="20" height="20" fill="url(#g)"/><rect x="700" y="1088" width="48" height="48" fill="#8B5CF6"/><rect x="1068" y="788" width="30" height="30" fill="#06FFF0"/><rect x="876" y="530" width="27" height="27" fill="url(#g)"/><rect x="472" y="555" width="28" height="28" fill="#8B5CF6"/><rect x="763" y="317" width="30" height="30" fill="#06FFF0"/><rect x="635" y="96" width="29" height="29" fill="url(#g)"/><rect x="1010" y="490" width="29" height="29" fill="#8B5CF6"/><rect x="626" y="633" width="39" height="39" fill="#06FFF0"/><rect x="1057" y="322" width="43" height="43" fill="url(#g)"/><rect x="819" y="441" width="46" height="46" fill="#8B5CF6"/><rect x="75" y="120" width="21" height="21" fill="#06FFF0"/><rect x="927" y="769" width="52" height="52" fill="url(#g)"/><rect x="385" y="274" width="34" height="34" fill="#8B5CF6"/><rect x="939" y="505" width="23" height="23" fill="#06FFF0"/><rect x="675" y="517" width="20" height="20" fill="url(#g)"/><rect x="557" y="632" width="43" height="43" fill="#8B5CF6"/><rect x="987" y="895" width="31" height="31" fill="#06FFF0"/><rect x="296" y="623" width="32" height="32" fill="url(#g)"/><rect x="534" y="1043" width="24" height="24" fill="#8B5CF6"/><rect x="1036" y="861" width="30" height="30" fill="#06FFF0"/><rect x="949" y="1047" width="28" height="28" fill="url(#g)"/><rect x="581" y="1099" width="39" height="39" fill="#8B5CF6"/><rect x="173" y="274" width="46" height="46" fill="#06FFF0"/><rect x="1094" y="556" width="25" height="25" fill="url(#g)"/><rect x="747" y="855" width="60" height="60" fill="#8B5CF6"/><rect x="918" y="935" width="48" height="48" fill="#06FFF0"/><rect x="774" y="442" width="38" height="38" fill="url(#g)"/><rect x="961" y="798" width="34" height="34" fill="#8B5CF6"/><rect x="349" y="53" width="30" height="30" fill="#06FFF0"/><rect x="918" y="602" width="42" height="42" fill="url(#g)"/><rect x="465" y="1139" width="29" height="29" fill="#8B5CF6"/><rect x="371" y="514" width="45" height="45" fill="#06FFF0"/><rect x="563" y="579" width="31" height="31" fill="url(#g)"/><rect x="503" y="1009" width="36" height="36" fill="#8B5CF6"/><rect x="329" y="628" width="49" height="49" fill="#06FFF0"/><rect x="436" y="1000" width="56" height="56" fill="url(#g)"/><rect x="917" y="445" width="28" height="28" fill="#8B5CF6"/><rect x="898" y="212" width="32" height="32" fill="#06FFF0"/><rect x="944" y="517" width="50" height="50" fill="url(#g)"/><rect x="1019" y="1147" width="36" height="36" fill="#8B5CF6"/><rect x="362" y="910" width="49" height="49" fill="#06FFF0"/><rect x="513" y="469" width="41" height="41" fill="url(#g)"/><rect x="1096" y="305" width="23" height="23" fill="#8B5CF6"/><rect x="1041" y="545" width="32" height="32" fill="#06FFF0"/><rect x="154" y="595" width="36" height="36" fill="url(#g)"/><rect x="508" y="333" width="39" height="39" fill="#8B5CF6"/><rect x="855" y="524" width="30" height="30" fill="#06FFF0"/><rect x="555" y="810" width="21" height="21" fill="url(#g)"/><rect x="342" y="282" width="24" height="24" fill="#8B5CF6"/><rect x="702" y="798" width="44" height="44" fill="#06FFF0"/><rect x="1099" y="1038" width="53" height="53" fill="url(#g)"/><rect x="674" y="1056" width="28" height="28" fill="#8B5CF6"/><rect x="287" y="217" width="21" height="21" fill="#06FFF0"/><rect x="309" y="270" width="25" height="25" fill="url(#g)"/><rect x="1114" y="530" width="49" height="49" fill="#8B5CF6"/><rect x="800" y="260" width="50" height="50" fill="#06FFF0"/><rect x="310" y="676" width="22" height="22" fill="url(#g)"/><rect x="492" y="803" width="35" height="35" fill="#8B5CF6"/><rect x="124" y="145" width="21" height="21" fill="#06FFF0"/><rect x="120" y="211" width="30" height="30" fill="url(#g)"/><rect x="778" y="1120" width="22" height="22" fill="#8B5CF6"/><rect x="95" y="555" width="60" height="60" fill="#06FFF0"/><rect x="757" y="722" width="44" height="44" fill="url(#g)"/><rect x="942" y="1116" width="57" height="57" fill="#8B5CF6"/><rect x="995" y="397" width="37" height="37" fill="#06FFF0"/><rect x="782" y="180" width="37" height="37" fill="url(#g)"/><rect x="681" y="236" width="35" height="35" fill="#8B5CF6"/><rect x="410" y="326" width="51" height="51" fill="#06FFF0"/><rect x="372" y="815" width="33" height="33" fill="url(#g)"/><rect x="679" y="910" width="24" height="24" fill="#8B5CF6"/><rect x="398" y="750" width="45" height="45" fill="#06FFF0"/></g>
  <text x="600" y="545" text-anchor="middle" font-family="Arial,sans-serif" font-weight="900" font-size="100" fill="url(#g)" filter="url(#glow)">Eltern aus dem</text><text x="600" y="655" text-anchor="middle" font-family="Arial,sans-serif" font-weight="900" font-size="100" fill="url(#g)" filter="url(#glow)">Krieg ...</text>
  <text x="600" y="805" text-anchor="middle" font-family="Arial,sans-serif" font-weight="700" font-size="54" fill="#E5E7EB" opacity="0.85">
    Michael Ostermann · Gemischt
  </text>
</svg>