<?xml version="1.0" encoding="UTF-8"?>
<svg xmlns="http://www.w3.org/2000/svg" viewBox="0 0 1200 1200" width="1200" height="1200">
  <defs>
    <linearGradient id="g" x1="0" y1="0" x2="1" y2="1">
      <stop offset="0%" stop-color="#FFD700"/>
      <stop offset="100%" stop-color="#FF8C00"/>
    </linearGradient>
    <filter id="glow">
      <feGaussianBlur stdDeviation="8" result="b"/>
      <feMerge><feMergeNode in="b"/><feMergeNode in="SourceGraphic"/></feMerge>
    </filter>
  </defs>
  <rect width="1200" height="1200" fill="#0B0F16"/>
  <g opacity="0.15"><circle cx="1100" cy="600" r="77" fill="#FFD700" opacity="0.5"/><circle cx="1061.9397662556" cy="791.34171618254" r="50" fill="#FF8C00" opacity="0.5"/><circle cx="953.55339059327" cy="953.55339059327" r="57" fill="#FFD700" opacity="0.5"/><circle cx="791.34171618254" cy="1061.9397662556" r="40" fill="#FF8C00" opacity="0.5"/><circle cx="600" cy="1100" r="58" fill="#FFD700" opacity="0.5"/><circle cx="408.65828381746" cy="1061.9397662556" r="77" fill="#FF8C00" opacity="0.5"/><circle cx="246.44660940673" cy="953.55339059327" r="58" fill="#FFD700" opacity="0.5"/><circle cx="138.06023374436" cy="791.34171618254" r="69" fill="#FF8C00" opacity="0.5"/><circle cx="100" cy="600" r="45" fill="#FFD700" opacity="0.5"/><circle cx="138.06023374436" cy="408.65828381746" r="44" fill="#FF8C00" opacity="0.5"/><circle cx="246.44660940673" cy="246.44660940673" r="68" fill="#FFD700" opacity="0.5"/><circle cx="408.65828381745" cy="138.06023374436" r="52" fill="#FF8C00" opacity="0.5"/><circle cx="600" cy="100" r="77" fill="#FFD700" opacity="0.5"/><circle cx="791.34171618255" cy="138.06023374436" r="79" fill="#FF8C00" opacity="0.5"/><circle cx="953.55339059327" cy="246.44660940673" r="62" fill="#FFD700" opacity="0.5"/><circle cx="1061.9397662556" cy="408.65828381745" r="40" fill="#FF8C00" opacity="0.5"/></g>
  <text x="600" y="600" text-anchor="middle" font-family="Arial,sans-serif" font-weight="900" font-size="108" fill="url(#g)" filter="url(#glow)">FCKW</text>
  <text x="600" y="758" text-anchor="middle" font-family="Arial,sans-serif" font-weight="700" font-size="54" fill="#E5E7EB" opacity="0.85">
    Michael Ostermann · Rapp
  </text>
</svg>