<?xml version="1.0" encoding="UTF-8"?>
<svg xmlns="http://www.w3.org/2000/svg" viewBox="0 0 1200 1200" width="1200" height="1200">
  <defs>
    <linearGradient id="g" x1="0" y1="0" x2="1" y2="1">
      <stop offset="0%" stop-color="#8B5CF6"/>
      <stop offset="100%" stop-color="#06FFF0"/>
    </linearGradient>
    <filter id="glow">
      <feGaussianBlur stdDeviation="8" result="b"/>
      <feMerge><feMergeNode in="b"/><feMergeNode in="SourceGraphic"/></feMerge>
    </filter>
  </defs>
  <rect width="1200" height="1200" fill="#0B0F16"/>
  <g opacity="0.3"><circle cx="839" cy="1051" r="7" fill="#8B5CF6"/><circle cx="1001" cy="378" r="3" fill="#06FFF0"/><circle cx="285" cy="983" r="3" fill="#8B5CF6"/><circle cx="148" cy="1074" r="5" fill="#06FFF0"/><circle cx="207" cy="674" r="8" fill="#8B5CF6"/><circle cx="316" cy="558" r="7" fill="#06FFF0"/><circle cx="619" cy="375" r="4" fill="#8B5CF6"/><circle cx="1099" cy="675" r="7" fill="#06FFF0"/><circle cx="712" cy="307" r="8" fill="#8B5CF6"/><circle cx="223" cy="316" r="5" fill="#06FFF0"/><circle cx="1079" cy="673" r="8" fill="#8B5CF6"/><circle cx="762" cy="312" r="8" fill="#06FFF0"/><circle cx="432" cy="760" r="6" fill="#8B5CF6"/><circle cx="615" cy="631" r="3" fill="#06FFF0"/><circle cx="174" cy="824" r="5" fill="#8B5CF6"/><circle cx="114" cy="1056" r="3" fill="#06FFF0"/><circle cx="962" cy="724" r="6" fill="#8B5CF6"/><circle cx="464" cy="1052" r="3" fill="#06FFF0"/><circle cx="888" cy="884" r="5" fill="#8B5CF6"/><circle cx="454" cy="257" r="8" fill="#06FFF0"/><circle cx="986" cy="404" r="8" fill="#8B5CF6"/><circle cx="143" cy="376" r="4" fill="#06FFF0"/><circle cx="282" cy="594" r="5" fill="#8B5CF6"/><circle cx="734" cy="251" r="4" fill="#06FFF0"/><circle cx="548" cy="901" r="5" fill="#8B5CF6"/><circle cx="231" cy="652" r="8" fill="#06FFF0"/><circle cx="123" cy="754" r="5" fill="#8B5CF6"/><circle cx="124" cy="381" r="8" fill="#06FFF0"/><circle cx="702" cy="227" r="8" fill="#8B5CF6"/><circle cx="425" cy="705" r="4" fill="#06FFF0"/></g><circle cx="850" cy="300" r="200" fill="url(#g)" opacity="0.08"/>
  <text x="600" y="600" text-anchor="middle" font-family="Arial,sans-serif" font-weight="900" font-size="108" fill="url(#g)" filter="url(#glow)">Foever</text>
  <text x="600" y="758" text-anchor="middle" font-family="Arial,sans-serif" font-weight="700" font-size="54" fill="#E5E7EB" opacity="0.85">
    Michael Ostermann · Gemischt
  </text>
</svg>