<?xml version="1.0" encoding="UTF-8"?>
<svg xmlns="http://www.w3.org/2000/svg" viewBox="0 0 1200 1200" width="1200" height="1200">
  <defs>
    <linearGradient id="g" x1="0" y1="0" x2="1" y2="1">
      <stop offset="0%" stop-color="#8B5CF6"/>
      <stop offset="100%" stop-color="#06FFF0"/>
    </linearGradient>
    <filter id="glow">
      <feGaussianBlur stdDeviation="8" result="b"/>
      <feMerge><feMergeNode in="b"/><feMergeNode in="SourceGraphic"/></feMerge>
    </filter>
  </defs>
  <rect width="1200" height="1200" fill="#0B0F16"/>
  <g opacity="0.1" stroke-width="4"><line x1="0" y1="0" x2="400" y2="1200" stroke="#8B5CF6"/><line x1="60" y1="0" x2="460" y2="1200" stroke="#06FFF0"/><line x1="120" y1="0" x2="520" y2="1200" stroke="#8B5CF6"/><line x1="180" y1="0" x2="580" y2="1200" stroke="#06FFF0"/><line x1="240" y1="0" x2="640" y2="1200" stroke="#8B5CF6"/><line x1="300" y1="0" x2="700" y2="1200" stroke="#06FFF0"/><line x1="360" y1="0" x2="760" y2="1200" stroke="#8B5CF6"/><line x1="420" y1="0" x2="820" y2="1200" stroke="#06FFF0"/><line x1="480" y1="0" x2="880" y2="1200" stroke="#8B5CF6"/><line x1="540" y1="0" x2="940" y2="1200" stroke="#06FFF0"/><line x1="600" y1="0" x2="1000" y2="1200" stroke="#8B5CF6"/><line x1="660" y1="0" x2="1060" y2="1200" stroke="#06FFF0"/><line x1="720" y1="0" x2="1120" y2="1200" stroke="#8B5CF6"/><line x1="780" y1="0" x2="1180" y2="1200" stroke="#06FFF0"/><line x1="840" y1="0" x2="1240" y2="1200" stroke="#8B5CF6"/><line x1="900" y1="0" x2="1300" y2="1200" stroke="#06FFF0"/><line x1="960" y1="0" x2="1360" y2="1200" stroke="#8B5CF6"/><line x1="1020" y1="0" x2="1420" y2="1200" stroke="#06FFF0"/><line x1="1080" y1="0" x2="1480" y2="1200" stroke="#8B5CF6"/><line x1="1140" y1="0" x2="1540" y2="1200" stroke="#06FFF0"/></g><circle cx="600" cy="600" r="250" fill="url(#g)" opacity="0.08"/>
  <text x="600" y="545" text-anchor="middle" font-family="Arial,sans-serif" font-weight="900" font-size="100" fill="url(#g)" filter="url(#glow)">Für die Kämpfer</text><text x="600" y="655" text-anchor="middle" font-family="Arial,sans-serif" font-weight="900" font-size="100" fill="url(#g)" filter="url(#glow)">der Ukraine</text>
  <text x="600" y="805" text-anchor="middle" font-family="Arial,sans-serif" font-weight="700" font-size="54" fill="#E5E7EB" opacity="0.85">
    Michael Ostermann · Gemischt
  </text>
</svg>