<?xml version="1.0" encoding="UTF-8"?>
<svg xmlns="http://www.w3.org/2000/svg" viewBox="0 0 1200 1200" width="1200" height="1200">
  <defs>
    <linearGradient id="g" x1="0" y1="0" x2="1" y2="1">
      <stop offset="0%" stop-color="#06FFF0"/>
      <stop offset="100%" stop-color="#8B5CF6"/>
    </linearGradient>
    <filter id="glow">
      <feGaussianBlur stdDeviation="8" result="b"/>
      <feMerge><feMergeNode in="b"/><feMergeNode in="SourceGraphic"/></feMerge>
    </filter>
  </defs>
  <rect width="1200" height="1200" fill="#0B0F16"/>
  <g opacity="0.12"><rect x="929" y="1108" width="42" height="42" fill="#06FFF0"/><rect x="364" y="133" width="51" height="51" fill="#8B5CF6"/><rect x="612" y="408" width="32" height="32" fill="url(#g)"/><rect x="67" y="117" width="38" height="38" fill="#06FFF0"/><rect x="401" y="173" width="37" height="37" fill="#8B5CF6"/><rect x="335" y="465" width="27" height="27" fill="url(#g)"/><rect x="562" y="673" width="58" height="58" fill="#06FFF0"/><rect x="66" y="1021" width="31" height="31" fill="#8B5CF6"/><rect x="1145" y="443" width="60" height="60" fill="url(#g)"/><rect x="444" y="192" width="45" height="45" fill="#06FFF0"/><rect x="1123" y="748" width="53" height="53" fill="#8B5CF6"/><rect x="221" y="490" width="22" height="22" fill="url(#g)"/><rect x="350" y="284" width="52" height="52" fill="#06FFF0"/><rect x="966" y="392" width="44" height="44" fill="#8B5CF6"/><rect x="701" y="565" width="57" height="57" fill="url(#g)"/><rect x="796" y="375" width="46" height="46" fill="#06FFF0"/><rect x="564" y="1032" width="40" height="40" fill="#8B5CF6"/><rect x="1114" y="260" width="54" height="54" fill="url(#g)"/><rect x="424" y="939" width="39" height="39" fill="#06FFF0"/><rect x="411" y="629" width="30" height="30" fill="#8B5CF6"/><rect x="826" y="711" width="31" height="31" fill="url(#g)"/><rect x="366" y="728" width="50" height="50" fill="#06FFF0"/><rect x="199" y="388" width="43" height="43" fill="#8B5CF6"/><rect x="883" y="154" width="45" height="45" fill="url(#g)"/><rect x="517" y="587" width="52" height="52" fill="#06FFF0"/><rect x="656" y="326" width="33" height="33" fill="#8B5CF6"/><rect x="184" y="87" width="43" height="43" fill="url(#g)"/><rect x="824" y="552" width="28" height="28" fill="#06FFF0"/><rect x="174" y="1050" width="46" height="46" fill="#8B5CF6"/><rect x="775" y="222" width="52" height="52" fill="url(#g)"/><rect x="723" y="1112" width="33" height="33" fill="#06FFF0"/><rect x="282" y="356" width="44" height="44" fill="#8B5CF6"/><rect x="323" y="196" width="30" height="30" fill="url(#g)"/><rect x="777" y="900" width="20" height="20" fill="#06FFF0"/><rect x="213" y="145" width="25" height="25" fill="#8B5CF6"/><rect x="527" y="767" width="23" height="23" fill="url(#g)"/><rect x="789" y="366" width="36" height="36" fill="#06FFF0"/><rect x="424" y="584" width="60" height="60" fill="#8B5CF6"/><rect x="706" y="240" width="35" height="35" fill="url(#g)"/><rect x="500" y="288" width="52" height="52" fill="#06FFF0"/><rect x="290" y="512" width="47" height="47" fill="#8B5CF6"/><rect x="706" y="921" width="36" height="36" fill="url(#g)"/><rect x="880" y="57" width="21" height="21" fill="#06FFF0"/><rect x="1030" y="901" width="39" height="39" fill="#8B5CF6"/><rect x="793" y="285" width="45" height="45" fill="url(#g)"/><rect x="264" y="400" width="40" height="40" fill="#06FFF0"/><rect x="648" y="1038" width="26" height="26" fill="#8B5CF6"/><rect x="745" y="193" width="50" height="50" fill="url(#g)"/><rect x="573" y="813" width="20" height="20" fill="#06FFF0"/><rect x="228" y="325" width="58" height="58" fill="#8B5CF6"/><rect x="606" y="523" width="48" height="48" fill="url(#g)"/><rect x="583" y="956" width="57" height="57" fill="#06FFF0"/><rect x="110" y="993" width="23" height="23" fill="#8B5CF6"/><rect x="860" y="331" width="41" height="41" fill="url(#g)"/><rect x="297" y="995" width="57" height="57" fill="#06FFF0"/><rect x="416" y="310" width="30" height="30" fill="#8B5CF6"/><rect x="345" y="1022" width="35" height="35" fill="url(#g)"/><rect x="958" y="977" width="58" height="58" fill="#06FFF0"/><rect x="867" y="167" width="28" height="28" fill="#8B5CF6"/><rect x="258" y="900" width="58" height="58" fill="url(#g)"/><rect x="620" y="790" width="42" height="42" fill="#06FFF0"/><rect x="1128" y="250" width="38" height="38" fill="#8B5CF6"/><rect x="180" y="443" width="34" height="34" fill="url(#g)"/><rect x="1095" y="78" width="39" height="39" fill="#06FFF0"/><rect x="110" y="1003" width="21" height="21" fill="#8B5CF6"/><rect x="896" y="458" width="27" height="27" fill="url(#g)"/><rect x="1129" y="79" width="48" height="48" fill="#06FFF0"/><rect x="299" y="612" width="24" height="24" fill="#8B5CF6"/><rect x="699" y="553" width="50" height="50" fill="url(#g)"/><rect x="904" y="424" width="34" height="34" fill="#06FFF0"/><rect x="252" y="853" width="48" height="48" fill="#8B5CF6"/><rect x="78" y="799" width="33" height="33" fill="url(#g)"/><rect x="423" y="959" width="42" height="42" fill="#06FFF0"/><rect x="263" y="667" width="47" height="47" fill="#8B5CF6"/><rect x="446" y="317" width="30" height="30" fill="url(#g)"/><rect x="418" y="737" width="37" height="37" fill="#06FFF0"/><rect x="260" y="82" width="36" height="36" fill="#8B5CF6"/><rect x="427" y="199" width="30" height="30" fill="url(#g)"/><rect x="337" y="686" width="23" height="23" fill="#06FFF0"/><rect x="147" y="412" width="30" height="30" fill="#8B5CF6"/></g>
  <text x="600" y="600" text-anchor="middle" font-family="Arial,sans-serif" font-weight="900" font-size="108" fill="url(#g)" filter="url(#glow)">Herr der Vulven</text>
  <text x="600" y="758" text-anchor="middle" font-family="Arial,sans-serif" font-weight="700" font-size="54" fill="#E5E7EB" opacity="0.85">
    Michael Ostermann · Party
  </text>
</svg>