<?xml version="1.0" encoding="UTF-8"?>
<svg xmlns="http://www.w3.org/2000/svg" viewBox="0 0 1200 1200" width="1200" height="1200">
  <defs>
    <linearGradient id="g" x1="0" y1="0" x2="1" y2="1">
      <stop offset="0%" stop-color="#FF006E"/>
      <stop offset="100%" stop-color="#FF8C00"/>
    </linearGradient>
    <filter id="glow">
      <feGaussianBlur stdDeviation="8" result="b"/>
      <feMerge><feMergeNode in="b"/><feMergeNode in="SourceGraphic"/></feMerge>
    </filter>
  </defs>
  <rect width="1200" height="1200" fill="#0B0F16"/>
  <g opacity="0.08"><rect x="-200" y="0" width="40" height="1400" fill="#FF006E" transform="rotate(45 600 600)"/><rect x="-120" y="0" width="40" height="1400" fill="#FF8C00" transform="rotate(45 600 600)"/><rect x="-40" y="0" width="40" height="1400" fill="#FF006E" transform="rotate(45 600 600)"/><rect x="40" y="0" width="40" height="1400" fill="#FF8C00" transform="rotate(45 600 600)"/><rect x="120" y="0" width="40" height="1400" fill="#FF006E" transform="rotate(45 600 600)"/><rect x="200" y="0" width="40" height="1400" fill="#FF8C00" transform="rotate(45 600 600)"/><rect x="280" y="0" width="40" height="1400" fill="#FF006E" transform="rotate(45 600 600)"/><rect x="360" y="0" width="40" height="1400" fill="#FF8C00" transform="rotate(45 600 600)"/><rect x="440" y="0" width="40" height="1400" fill="#FF006E" transform="rotate(45 600 600)"/><rect x="520" y="0" width="40" height="1400" fill="#FF8C00" transform="rotate(45 600 600)"/><rect x="600" y="0" width="40" height="1400" fill="#FF006E" transform="rotate(45 600 600)"/><rect x="680" y="0" width="40" height="1400" fill="#FF8C00" transform="rotate(45 600 600)"/><rect x="760" y="0" width="40" height="1400" fill="#FF006E" transform="rotate(45 600 600)"/><rect x="840" y="0" width="40" height="1400" fill="#FF8C00" transform="rotate(45 600 600)"/><rect x="920" y="0" width="40" height="1400" fill="#FF006E" transform="rotate(45 600 600)"/><rect x="1000" y="0" width="40" height="1400" fill="#FF8C00" transform="rotate(45 600 600)"/><rect x="1080" y="0" width="40" height="1400" fill="#FF006E" transform="rotate(45 600 600)"/><rect x="1160" y="0" width="40" height="1400" fill="#FF8C00" transform="rotate(45 600 600)"/><rect x="1240" y="0" width="40" height="1400" fill="#FF006E" transform="rotate(45 600 600)"/><rect x="1320" y="0" width="40" height="1400" fill="#FF8C00" transform="rotate(45 600 600)"/><rect x="1400" y="0" width="40" height="1400" fill="#FF006E" transform="rotate(45 600 600)"/><rect x="1480" y="0" width="40" height="1400" fill="#FF8C00" transform="rotate(45 600 600)"/><rect x="1560" y="0" width="40" height="1400" fill="#FF006E" transform="rotate(45 600 600)"/><rect x="1640" y="0" width="40" height="1400" fill="#FF8C00" transform="rotate(45 600 600)"/><rect x="1720" y="0" width="40" height="1400" fill="#FF006E" transform="rotate(45 600 600)"/><rect x="1800" y="0" width="40" height="1400" fill="#FF8C00" transform="rotate(45 600 600)"/><rect x="1880" y="0" width="40" height="1400" fill="#FF006E" transform="rotate(45 600 600)"/><rect x="1960" y="0" width="40" height="1400" fill="#FF8C00" transform="rotate(45 600 600)"/><rect x="2040" y="0" width="40" height="1400" fill="#FF006E" transform="rotate(45 600 600)"/><rect x="2120" y="0" width="40" height="1400" fill="#FF8C00" transform="rotate(45 600 600)"/></g><circle cx="600" cy="600" r="200" fill="url(#g)" opacity="0.12"/>
  <text x="600" y="545" text-anchor="middle" font-family="Arial,sans-serif" font-weight="900" font-size="100" fill="url(#g)" filter="url(#glow)">Ich liebe dich</text><text x="600" y="655" text-anchor="middle" font-family="Arial,sans-serif" font-weight="900" font-size="100" fill="url(#g)" filter="url(#glow)">Carolin</text>
  <text x="600" y="805" text-anchor="middle" font-family="Arial,sans-serif" font-weight="700" font-size="54" fill="#E5E7EB" opacity="0.85">
    Michael Ostermann · Love
  </text>
</svg>