<?xml version="1.0" encoding="UTF-8"?>
<svg xmlns="http://www.w3.org/2000/svg" viewBox="0 0 1200 1200" width="1200" height="1200">
  <defs>
    <linearGradient id="g" x1="0" y1="0" x2="1" y2="1">
      <stop offset="0%" stop-color="#FFD700"/>
      <stop offset="100%" stop-color="#FF8C00"/>
    </linearGradient>
    <filter id="glow">
      <feGaussianBlur stdDeviation="8" result="b"/>
      <feMerge><feMergeNode in="b"/><feMergeNode in="SourceGraphic"/></feMerge>
    </filter>
  </defs>
  <rect width="1200" height="1200" fill="#0B0F16"/>
  <g opacity="0.15" stroke-width="3"><line x1="750" y1="600" x2="1050" y2="600" stroke="#FFD700"/><line x1="744.88887394336" y1="638.82285676538" x2="1034.6666218301" y2="716.46857029613" stroke="#FF8C00"/><line x1="729.90381056767" y1="675" x2="989.711431703" y2="825" stroke="#FFD700"/><line x1="706.06601717798" y1="706.06601717798" x2="918.19805153395" y2="918.19805153395" stroke="#FF8C00"/><line x1="675" y1="729.90381056767" x2="825" y2="989.711431703" stroke="#FFD700"/><line x1="638.82285676538" y1="744.88887394336" x2="716.46857029613" y2="1034.6666218301" stroke="#FF8C00"/><line x1="600" y1="750" x2="600" y2="1050" stroke="#FFD700"/><line x1="561.17714323462" y1="744.88887394336" x2="483.53142970387" y2="1034.6666218301" stroke="#FF8C00"/><line x1="525" y1="729.90381056767" x2="375" y2="989.711431703" stroke="#FFD700"/><line x1="493.93398282202" y1="706.06601717798" x2="281.80194846605" y2="918.19805153395" stroke="#FF8C00"/><line x1="470.09618943233" y1="675" x2="210.288568297" y2="825" stroke="#FFD700"/><line x1="455.11112605664" y1="638.82285676538" x2="165.33337816992" y2="716.46857029613" stroke="#FF8C00"/><line x1="450" y1="600" x2="150" y2="600" stroke="#FFD700"/><line x1="455.11112605664" y1="561.17714323462" x2="165.33337816992" y2="483.53142970387" stroke="#FF8C00"/><line x1="470.09618943233" y1="525" x2="210.288568297" y2="375" stroke="#FFD700"/><line x1="493.93398282202" y1="493.93398282202" x2="281.80194846605" y2="281.80194846605" stroke="#FF8C00"/><line x1="525" y1="470.09618943233" x2="375" y2="210.288568297" stroke="#FFD700"/><line x1="561.17714323462" y1="455.11112605664" x2="483.53142970387" y2="165.33337816992" stroke="#FF8C00"/><line x1="600" y1="450" x2="600" y2="150" stroke="#FFD700"/><line x1="638.82285676538" y1="455.11112605664" x2="716.46857029613" y2="165.33337816992" stroke="#FF8C00"/><line x1="675" y1="470.09618943233" x2="825" y2="210.288568297" stroke="#FFD700"/><line x1="706.06601717798" y1="493.93398282202" x2="918.19805153395" y2="281.80194846605" stroke="#FF8C00"/><line x1="729.90381056767" y1="525" x2="989.711431703" y2="375" stroke="#FFD700"/><line x1="744.88887394336" y1="561.17714323462" x2="1034.6666218301" y2="483.53142970387" stroke="#FF8C00"/></g>
  <text x="600" y="545" text-anchor="middle" font-family="Arial,sans-serif" font-weight="900" font-size="100" fill="url(#g)" filter="url(#glow)">Micha Final 10</text><text x="600" y="655" text-anchor="middle" font-family="Arial,sans-serif" font-weight="900" font-size="100" fill="url(#g)" filter="url(#glow)">Anni</text>
  <text x="600" y="805" text-anchor="middle" font-family="Arial,sans-serif" font-weight="700" font-size="54" fill="#E5E7EB" opacity="0.85">
    Michael Ostermann · Rapp
  </text>
</svg>