<?xml version="1.0" encoding="UTF-8"?>
<svg xmlns="http://www.w3.org/2000/svg" viewBox="0 0 1200 1200" width="1200" height="1200">
  <defs>
    <linearGradient id="g" x1="0" y1="0" x2="1" y2="1">
      <stop offset="0%" stop-color="#4A5568"/>
      <stop offset="100%" stop-color="#718096"/>
    </linearGradient>
    <filter id="glow">
      <feGaussianBlur stdDeviation="8" result="b"/>
      <feMerge><feMergeNode in="b"/><feMergeNode in="SourceGraphic"/></feMerge>
    </filter>
  </defs>
  <rect width="1200" height="1200" fill="#0B0F16"/>
  <g opacity="0.2" stroke-width="2"><line x1="100" y1="100" x2="100" y2="245" stroke="#4A5568"/><line x1="155" y1="100" x2="155" y2="395" stroke="#718096"/><line x1="210" y1="100" x2="210" y2="395" stroke="#4A5568"/><line x1="265" y1="100" x2="265" y2="282" stroke="#718096"/><line x1="320" y1="100" x2="320" y2="300" stroke="#4A5568"/><line x1="375" y1="100" x2="375" y2="479" stroke="#718096"/><line x1="430" y1="100" x2="430" y2="373" stroke="#4A5568"/><line x1="485" y1="100" x2="485" y2="236" stroke="#718096"/><line x1="540" y1="100" x2="540" y2="335" stroke="#4A5568"/><line x1="595" y1="100" x2="595" y2="252" stroke="#718096"/><line x1="650" y1="100" x2="650" y2="308" stroke="#4A5568"/><line x1="705" y1="100" x2="705" y2="260" stroke="#718096"/><line x1="760" y1="100" x2="760" y2="342" stroke="#4A5568"/><line x1="815" y1="100" x2="815" y2="318" stroke="#718096"/><line x1="870" y1="100" x2="870" y2="310" stroke="#4A5568"/><line x1="925" y1="100" x2="925" y2="316" stroke="#718096"/><line x1="980" y1="100" x2="980" y2="419" stroke="#4A5568"/><line x1="1035" y1="100" x2="1035" y2="202" stroke="#718096"/><line x1="1090" y1="100" x2="1090" y2="457" stroke="#4A5568"/><line x1="1145" y1="100" x2="1145" y2="297" stroke="#718096"/></g><rect x="400" y="400" width="400" height="400" fill="url(#g)" opacity="0.05" transform="rotate(45 600 600)"/>
  <text x="600" y="545" text-anchor="middle" font-family="Arial,sans-serif" font-weight="900" font-size="100" fill="url(#g)" filter="url(#glow)">Ruhe sanft meine</text><text x="600" y="655" text-anchor="middle" font-family="Arial,sans-serif" font-weight="900" font-size="100" fill="url(#g)" filter="url(#glow)">liebe Mama</text>
  <text x="600" y="805" text-anchor="middle" font-family="Arial,sans-serif" font-weight="700" font-size="54" fill="#E5E7EB" opacity="0.85">
    Michael Ostermann · Traurig
  </text>
</svg>