<?xml version="1.0" encoding="UTF-8"?>
<svg xmlns="http://www.w3.org/2000/svg" viewBox="0 0 1200 1200" width="1200" height="1200">
  <defs>
    <linearGradient id="g" x1="0" y1="0" x2="1" y2="1">
      <stop offset="0%" stop-color="#FF006E"/>
      <stop offset="100%" stop-color="#FF8C00"/>
    </linearGradient>
    <filter id="glow">
      <feGaussianBlur stdDeviation="8" result="b"/>
      <feMerge><feMergeNode in="b"/><feMergeNode in="SourceGraphic"/></feMerge>
    </filter>
  </defs>
  <rect width="1200" height="1200" fill="#0B0F16"/>
  <g opacity="0.2"><circle cx="750" cy="579" r="9" fill="#FF006E"/><circle cx="1016" cy="1021" r="10" fill="#FF8C00"/><circle cx="127" cy="591" r="8" fill="#FF006E"/><circle cx="398" cy="1047" r="4" fill="#FF8C00"/><circle cx="852" cy="183" r="9" fill="#FF006E"/><circle cx="671" cy="258" r="10" fill="#FF8C00"/><circle cx="149" cy="844" r="9" fill="#FF006E"/><circle cx="1117" cy="739" r="11" fill="#FF8C00"/><circle cx="776" cy="995" r="7" fill="#FF006E"/><circle cx="94" cy="969" r="3" fill="#FF8C00"/><circle cx="810" cy="398" r="8" fill="#FF006E"/><circle cx="732" cy="1074" r="11" fill="#FF8C00"/><circle cx="855" cy="84" r="3" fill="#FF006E"/><circle cx="443" cy="332" r="3" fill="#FF8C00"/><circle cx="533" cy="380" r="3" fill="#FF006E"/><circle cx="716" cy="111" r="10" fill="#FF8C00"/><circle cx="251" cy="1023" r="2" fill="#FF006E"/><circle cx="274" cy="313" r="10" fill="#FF8C00"/><circle cx="401" cy="766" r="7" fill="#FF006E"/><circle cx="767" cy="494" r="2" fill="#FF8C00"/><circle cx="80" cy="794" r="7" fill="#FF006E"/><circle cx="990" cy="649" r="6" fill="#FF8C00"/><circle cx="241" cy="461" r="12" fill="#FF006E"/><circle cx="877" cy="647" r="2" fill="#FF8C00"/><circle cx="162" cy="264" r="6" fill="#FF006E"/><circle cx="339" cy="50" r="10" fill="#FF8C00"/><circle cx="305" cy="964" r="8" fill="#FF006E"/><circle cx="760" cy="115" r="3" fill="#FF8C00"/><circle cx="1087" cy="729" r="11" fill="#FF006E"/><circle cx="437" cy="819" r="10" fill="#FF8C00"/><circle cx="1106" cy="1064" r="7" fill="#FF006E"/><circle cx="628" cy="1109" r="4" fill="#FF8C00"/><circle cx="1136" cy="465" r="7" fill="#FF006E"/><circle cx="823" cy="821" r="11" fill="#FF8C00"/><circle cx="1009" cy="441" r="7" fill="#FF006E"/><circle cx="468" cy="806" r="2" fill="#FF8C00"/><circle cx="518" cy="269" r="11" fill="#FF006E"/><circle cx="604" cy="523" r="3" fill="#FF8C00"/><circle cx="909" cy="319" r="2" fill="#FF006E"/><circle cx="180" cy="1056" r="10" fill="#FF8C00"/><circle cx="339" cy="735" r="3" fill="#FF006E"/><circle cx="216" cy="845" r="6" fill="#FF8C00"/><circle cx="532" cy="339" r="6" fill="#FF006E"/><circle cx="1033" cy="617" r="12" fill="#FF8C00"/><circle cx="701" cy="64" r="4" fill="#FF006E"/><circle cx="609" cy="725" r="8" fill="#FF8C00"/><circle cx="261" cy="1109" r="8" fill="#FF006E"/><circle cx="969" cy="123" r="8" fill="#FF8C00"/><circle cx="1140" cy="159" r="3" fill="#FF006E"/><circle cx="1139" cy="1031" r="2" fill="#FF8C00"/><circle cx="1016" cy="702" r="9" fill="#FF006E"/><circle cx="386" cy="892" r="7" fill="#FF8C00"/><circle cx="680" cy="707" r="10" fill="#FF006E"/><circle cx="519" cy="759" r="10" fill="#FF8C00"/><circle cx="502" cy="994" r="4" fill="#FF006E"/><circle cx="612" cy="570" r="6" fill="#FF8C00"/><circle cx="608" cy="73" r="3" fill="#FF006E"/><circle cx="487" cy="636" r="2" fill="#FF8C00"/><circle cx="928" cy="632" r="2" fill="#FF006E"/><circle cx="78" cy="688" r="3" fill="#FF8C00"/><circle cx="1012" cy="490" r="4" fill="#FF006E"/><circle cx="820" cy="772" r="10" fill="#FF8C00"/><circle cx="1135" cy="973" r="8" fill="#FF006E"/><circle cx="278" cy="449" r="11" fill="#FF8C00"/><circle cx="1009" cy="974" r="4" fill="#FF006E"/><circle cx="749" cy="69" r="2" fill="#FF8C00"/><circle cx="1059" cy="761" r="10" fill="#FF006E"/><circle cx="727" cy="560" r="9" fill="#FF8C00"/><circle cx="1026" cy="908" r="4" fill="#FF006E"/><circle cx="100" cy="820" r="12" fill="#FF8C00"/><circle cx="96" cy="328" r="11" fill="#FF006E"/><circle cx="149" cy="778" r="3" fill="#FF8C00"/><circle cx="155" cy="487" r="10" fill="#FF006E"/><circle cx="328" cy="202" r="8" fill="#FF8C00"/><circle cx="521" cy="749" r="5" fill="#FF006E"/><circle cx="617" cy="541" r="5" fill="#FF8C00"/><circle cx="191" cy="96" r="7" fill="#FF006E"/><circle cx="348" cy="942" r="11" fill="#FF8C00"/><circle cx="482" cy="643" r="2" fill="#FF006E"/><circle cx="832" cy="989" r="8" fill="#FF8C00"/><circle cx="354" cy="681" r="10" fill="#FF006E"/><circle cx="255" cy="118" r="7" fill="#FF8C00"/><circle cx="266" cy="763" r="5" fill="#FF006E"/><circle cx="631" cy="489" r="9" fill="#FF8C00"/><circle cx="96" cy="686" r="3" fill="#FF006E"/><circle cx="686" cy="1046" r="9" fill="#FF8C00"/><circle cx="973" cy="544" r="12" fill="#FF006E"/><circle cx="182" cy="646" r="8" fill="#FF8C00"/><circle cx="616" cy="872" r="3" fill="#FF006E"/><circle cx="387" cy="54" r="12" fill="#FF8C00"/><circle cx="252" cy="236" r="8" fill="#FF006E"/><circle cx="790" cy="1058" r="9" fill="#FF8C00"/><circle cx="325" cy="1089" r="8" fill="#FF006E"/><circle cx="942" cy="274" r="7" fill="#FF8C00"/><circle cx="621" cy="195" r="12" fill="#FF006E"/><circle cx="1094" cy="589" r="6" fill="#FF8C00"/><circle cx="462" cy="922" r="10" fill="#FF006E"/><circle cx="889" cy="717" r="6" fill="#FF8C00"/><circle cx="489" cy="389" r="5" fill="#FF006E"/><circle cx="532" cy="836" r="4" fill="#FF8C00"/><circle cx="505" cy="411" r="7" fill="#FF006E"/><circle cx="1142" cy="961" r="10" fill="#FF8C00"/><circle cx="395" cy="603" r="2" fill="#FF006E"/><circle cx="1053" cy="1053" r="7" fill="#FF8C00"/><circle cx="517" cy="66" r="9" fill="#FF006E"/><circle cx="202" cy="938" r="11" fill="#FF8C00"/><circle cx="173" cy="395" r="6" fill="#FF006E"/><circle cx="397" cy="932" r="10" fill="#FF8C00"/><circle cx="427" cy="720" r="11" fill="#FF006E"/><circle cx="879" cy="528" r="7" fill="#FF8C00"/><circle cx="422" cy="951" r="9" fill="#FF006E"/><circle cx="731" cy="85" r="7" fill="#FF8C00"/><circle cx="646" cy="377" r="3" fill="#FF006E"/><circle cx="1026" cy="648" r="6" fill="#FF8C00"/><circle cx="187" cy="1123" r="4" fill="#FF006E"/><circle cx="384" cy="970" r="4" fill="#FF8C00"/><circle cx="1087" cy="811" r="4" fill="#FF006E"/><circle cx="215" cy="420" r="6" fill="#FF8C00"/><circle cx="1008" cy="339" r="12" fill="#FF006E"/><circle cx="173" cy="846" r="6" fill="#FF8C00"/><circle cx="1082" cy="868" r="2" fill="#FF006E"/><circle cx="1108" cy="987" r="6" fill="#FF8C00"/><circle cx="568" cy="584" r="5" fill="#FF006E"/><circle cx="777" cy="437" r="5" fill="#FF8C00"/><circle cx="925" cy="100" r="3" fill="#FF006E"/><circle cx="1109" cy="857" r="2" fill="#FF8C00"/><circle cx="522" cy="666" r="8" fill="#FF006E"/><circle cx="1066" cy="1022" r="3" fill="#FF8C00"/><circle cx="571" cy="930" r="10" fill="#FF006E"/><circle cx="914" cy="624" r="2" fill="#FF8C00"/><circle cx="873" cy="277" r="2" fill="#FF006E"/><circle cx="1019" cy="284" r="11" fill="#FF8C00"/><circle cx="185" cy="1140" r="2" fill="#FF006E"/><circle cx="854" cy="424" r="10" fill="#FF8C00"/><circle cx="696" cy="168" r="12" fill="#FF006E"/><circle cx="630" cy="569" r="11" fill="#FF8C00"/><circle cx="966" cy="1146" r="6" fill="#FF006E"/><circle cx="1043" cy="851" r="6" fill="#FF8C00"/><circle cx="492" cy="846" r="5" fill="#FF006E"/><circle cx="842" cy="286" r="10" fill="#FF8C00"/><circle cx="1042" cy="873" r="2" fill="#FF006E"/><circle cx="977" cy="702" r="3" fill="#FF8C00"/><circle cx="192" cy="485" r="9" fill="#FF006E"/><circle cx="373" cy="746" r="2" fill="#FF8C00"/><circle cx="491" cy="849" r="4" fill="#FF006E"/><circle cx="842" cy="671" r="3" fill="#FF8C00"/><circle cx="473" cy="394" r="7" fill="#FF006E"/><circle cx="240" cy="1147" r="12" fill="#FF8C00"/><circle cx="444" cy="784" r="7" fill="#FF006E"/><circle cx="1145" cy="334" r="2" fill="#FF8C00"/></g>
  <text x="600" y="600" text-anchor="middle" font-family="Arial,sans-serif" font-weight="900" font-size="108" fill="url(#g)" filter="url(#glow)">Sonnenschein Joshi</text>
  <text x="600" y="758" text-anchor="middle" font-family="Arial,sans-serif" font-weight="700" font-size="54" fill="#E5E7EB" opacity="0.85">
    Michael Ostermann · Love
  </text>
</svg>