<?xml version="1.0" encoding="UTF-8"?>
<svg xmlns="http://www.w3.org/2000/svg" viewBox="0 0 1200 1200" width="1200" height="1200">
  <defs>
    <linearGradient id="g" x1="0" y1="0" x2="1" y2="1">
      <stop offset="0%" stop-color="#FFD700"/>
      <stop offset="100%" stop-color="#FF8C00"/>
    </linearGradient>
    <filter id="glow">
      <feGaussianBlur stdDeviation="8" result="b"/>
      <feMerge><feMergeNode in="b"/><feMergeNode in="SourceGraphic"/></feMerge>
    </filter>
  </defs>
  <rect width="1200" height="1200" fill="#0B0F16"/>
  <g opacity="0.2"><circle cx="288" cy="1149" r="4" fill="#FFD700"/><circle cx="441" cy="579" r="11" fill="#FF8C00"/><circle cx="480" cy="1054" r="9" fill="#FFD700"/><circle cx="119" cy="1007" r="10" fill="#FF8C00"/><circle cx="633" cy="148" r="12" fill="#FFD700"/><circle cx="420" cy="1054" r="7" fill="#FF8C00"/><circle cx="97" cy="108" r="8" fill="#FFD700"/><circle cx="862" cy="647" r="10" fill="#FF8C00"/><circle cx="666" cy="119" r="7" fill="#FFD700"/><circle cx="641" cy="573" r="6" fill="#FF8C00"/><circle cx="124" cy="195" r="5" fill="#FFD700"/><circle cx="1144" cy="536" r="8" fill="#FF8C00"/><circle cx="741" cy="141" r="11" fill="#FFD700"/><circle cx="1001" cy="358" r="3" fill="#FF8C00"/><circle cx="1096" cy="486" r="8" fill="#FFD700"/><circle cx="140" cy="392" r="5" fill="#FF8C00"/><circle cx="925" cy="667" r="4" fill="#FFD700"/><circle cx="838" cy="204" r="7" fill="#FF8C00"/><circle cx="607" cy="485" r="2" fill="#FFD700"/><circle cx="69" cy="572" r="9" fill="#FF8C00"/><circle cx="488" cy="893" r="11" fill="#FFD700"/><circle cx="921" cy="145" r="12" fill="#FF8C00"/><circle cx="575" cy="1135" r="9" fill="#FFD700"/><circle cx="918" cy="521" r="8" fill="#FF8C00"/><circle cx="749" cy="1069" r="7" fill="#FFD700"/><circle cx="314" cy="762" r="8" fill="#FF8C00"/><circle cx="1128" cy="1056" r="12" fill="#FFD700"/><circle cx="705" cy="239" r="7" fill="#FF8C00"/><circle cx="643" cy="852" r="6" fill="#FFD700"/><circle cx="979" cy="331" r="4" fill="#FF8C00"/><circle cx="897" cy="227" r="9" fill="#FFD700"/><circle cx="909" cy="264" r="9" fill="#FF8C00"/><circle cx="350" cy="827" r="9" fill="#FFD700"/><circle cx="194" cy="1099" r="6" fill="#FF8C00"/><circle cx="1074" cy="956" r="8" fill="#FFD700"/><circle cx="552" cy="58" r="8" fill="#FF8C00"/><circle cx="445" cy="658" r="3" fill="#FFD700"/><circle cx="941" cy="1069" r="4" fill="#FF8C00"/><circle cx="1126" cy="529" r="2" fill="#FFD700"/><circle cx="527" cy="262" r="11" fill="#FF8C00"/><circle cx="676" cy="668" r="4" fill="#FFD700"/><circle cx="924" cy="648" r="4" fill="#FF8C00"/><circle cx="401" cy="529" r="4" fill="#FFD700"/><circle cx="865" cy="765" r="9" fill="#FF8C00"/><circle cx="420" cy="394" r="2" fill="#FFD700"/><circle cx="554" cy="908" r="11" fill="#FF8C00"/><circle cx="661" cy="1048" r="2" fill="#FFD700"/><circle cx="780" cy="891" r="3" fill="#FF8C00"/><circle cx="804" cy="209" r="10" fill="#FFD700"/><circle cx="641" cy="967" r="4" fill="#FF8C00"/><circle cx="429" cy="290" r="7" fill="#FFD700"/><circle cx="686" cy="1007" r="8" fill="#FF8C00"/><circle cx="614" cy="602" r="4" fill="#FFD700"/><circle cx="59" cy="386" r="11" fill="#FF8C00"/><circle cx="175" cy="1011" r="6" fill="#FFD700"/><circle cx="590" cy="139" r="9" fill="#FF8C00"/><circle cx="1091" cy="1009" r="8" fill="#FFD700"/><circle cx="972" cy="428" r="4" fill="#FF8C00"/><circle cx="1087" cy="715" r="3" fill="#FFD700"/><circle cx="184" cy="569" r="4" fill="#FF8C00"/><circle cx="513" cy="709" r="11" fill="#FFD700"/><circle cx="130" cy="984" r="3" fill="#FF8C00"/><circle cx="432" cy="825" r="7" fill="#FFD700"/><circle cx="488" cy="752" r="5" fill="#FF8C00"/><circle cx="603" cy="518" r="5" fill="#FFD700"/><circle cx="1031" cy="1053" r="2" fill="#FF8C00"/><circle cx="462" cy="1037" r="6" fill="#FFD700"/><circle cx="235" cy="864" r="9" fill="#FF8C00"/><circle cx="440" cy="74" r="6" fill="#FFD700"/><circle cx="607" cy="610" r="3" fill="#FF8C00"/><circle cx="644" cy="1148" r="5" fill="#FFD700"/><circle cx="742" cy="1091" r="2" fill="#FF8C00"/><circle cx="283" cy="353" r="7" fill="#FFD700"/><circle cx="182" cy="741" r="5" fill="#FF8C00"/><circle cx="785" cy="790" r="4" fill="#FFD700"/><circle cx="1090" cy="243" r="12" fill="#FF8C00"/><circle cx="711" cy="191" r="7" fill="#FFD700"/><circle cx="682" cy="114" r="10" fill="#FF8C00"/><circle cx="1019" cy="621" r="2" fill="#FFD700"/><circle cx="923" cy="180" r="2" fill="#FF8C00"/><circle cx="324" cy="186" r="12" fill="#FFD700"/><circle cx="968" cy="157" r="11" fill="#FF8C00"/><circle cx="831" cy="168" r="6" fill="#FFD700"/><circle cx="330" cy="130" r="2" fill="#FF8C00"/><circle cx="99" cy="800" r="4" fill="#FFD700"/><circle cx="817" cy="572" r="11" fill="#FF8C00"/><circle cx="882" cy="245" r="3" fill="#FFD700"/><circle cx="700" cy="270" r="3" fill="#FF8C00"/><circle cx="184" cy="652" r="12" fill="#FFD700"/><circle cx="159" cy="1150" r="12" fill="#FF8C00"/><circle cx="222" cy="972" r="5" fill="#FFD700"/><circle cx="779" cy="1070" r="10" fill="#FF8C00"/><circle cx="476" cy="1145" r="2" fill="#FFD700"/><circle cx="150" cy="972" r="11" fill="#FF8C00"/><circle cx="551" cy="369" r="7" fill="#FFD700"/><circle cx="243" cy="567" r="10" fill="#FF8C00"/><circle cx="234" cy="1025" r="12" fill="#FFD700"/><circle cx="388" cy="919" r="11" fill="#FF8C00"/><circle cx="1074" cy="416" r="5" fill="#FFD700"/><circle cx="170" cy="454" r="11" fill="#FF8C00"/><circle cx="339" cy="458" r="8" fill="#FFD700"/><circle cx="399" cy="768" r="8" fill="#FF8C00"/><circle cx="351" cy="680" r="3" fill="#FFD700"/><circle cx="1076" cy="1082" r="12" fill="#FF8C00"/><circle cx="530" cy="956" r="3" fill="#FFD700"/><circle cx="842" cy="926" r="4" fill="#FF8C00"/><circle cx="717" cy="476" r="8" fill="#FFD700"/><circle cx="250" cy="63" r="7" fill="#FF8C00"/><circle cx="1096" cy="831" r="8" fill="#FFD700"/><circle cx="834" cy="1031" r="10" fill="#FF8C00"/><circle cx="1098" cy="79" r="4" fill="#FFD700"/><circle cx="659" cy="160" r="11" fill="#FF8C00"/><circle cx="521" cy="811" r="10" fill="#FFD700"/><circle cx="758" cy="899" r="11" fill="#FF8C00"/><circle cx="343" cy="1136" r="3" fill="#FFD700"/><circle cx="852" cy="549" r="2" fill="#FF8C00"/><circle cx="1145" cy="387" r="6" fill="#FFD700"/><circle cx="595" cy="810" r="7" fill="#FF8C00"/><circle cx="342" cy="361" r="9" fill="#FFD700"/><circle cx="396" cy="835" r="11" fill="#FF8C00"/><circle cx="349" cy="820" r="5" fill="#FFD700"/><circle cx="372" cy="119" r="4" fill="#FF8C00"/><circle cx="239" cy="926" r="7" fill="#FFD700"/><circle cx="797" cy="950" r="8" fill="#FF8C00"/><circle cx="649" cy="437" r="4" fill="#FFD700"/><circle cx="628" cy="450" r="2" fill="#FF8C00"/><circle cx="837" cy="700" r="11" fill="#FFD700"/><circle cx="226" cy="554" r="12" fill="#FF8C00"/><circle cx="431" cy="705" r="4" fill="#FFD700"/><circle cx="945" cy="291" r="8" fill="#FF8C00"/><circle cx="573" cy="505" r="4" fill="#FFD700"/><circle cx="268" cy="103" r="3" fill="#FF8C00"/><circle cx="1147" cy="689" r="6" fill="#FFD700"/><circle cx="197" cy="70" r="8" fill="#FF8C00"/><circle cx="1125" cy="631" r="8" fill="#FFD700"/><circle cx="1063" cy="755" r="2" fill="#FF8C00"/><circle cx="981" cy="848" r="8" fill="#FFD700"/><circle cx="329" cy="1026" r="6" fill="#FF8C00"/><circle cx="513" cy="1034" r="7" fill="#FFD700"/><circle cx="969" cy="210" r="12" fill="#FF8C00"/><circle cx="1045" cy="293" r="12" fill="#FFD700"/><circle cx="1009" cy="454" r="5" fill="#FF8C00"/><circle cx="593" cy="65" r="11" fill="#FFD700"/><circle cx="640" cy="56" r="12" fill="#FF8C00"/><circle cx="461" cy="414" r="9" fill="#FFD700"/><circle cx="103" cy="708" r="7" fill="#FF8C00"/><circle cx="1030" cy="326" r="8" fill="#FFD700"/><circle cx="731" cy="843" r="11" fill="#FF8C00"/><circle cx="250" cy="1062" r="12" fill="#FFD700"/><circle cx="710" cy="56" r="6" fill="#FF8C00"/></g>
  <text x="600" y="600" text-anchor="middle" font-family="Arial,sans-serif" font-weight="900" font-size="108" fill="url(#g)" filter="url(#glow)">Schwarzer Mann</text>
  <text x="600" y="758" text-anchor="middle" font-family="Arial,sans-serif" font-weight="700" font-size="54" fill="#E5E7EB" opacity="0.85">
    Michael Ostermann · Rapp
  </text>
</svg>