<?xml version="1.0" encoding="UTF-8"?>
<svg xmlns="http://www.w3.org/2000/svg" viewBox="0 0 1200 1200" width="1200" height="1200">
  <defs>
    <linearGradient id="g" x1="0" y1="0" x2="1" y2="1">
      <stop offset="0%" stop-color="#8B5CF6"/>
      <stop offset="100%" stop-color="#06FFF0"/>
    </linearGradient>
    <filter id="glow">
      <feGaussianBlur stdDeviation="8" result="b"/>
      <feMerge><feMergeNode in="b"/><feMergeNode in="SourceGraphic"/></feMerge>
    </filter>
  </defs>
  <rect width="1200" height="1200" fill="#0B0F16"/>
  <g opacity="0.15" fill="none" stroke-width="4"><path d="M0,200 L200,120 L400,200 L600,120 L800,200 L1000,120 L1200,200" stroke="#8B5CF6"/><path d="M0,350 L200,270 L400,350 L600,270 L800,350 L1000,270 L1200,350" stroke="#06FFF0"/><path d="M0,500 L200,420 L400,500 L600,420 L800,500 L1000,420 L1200,500" stroke="#8B5CF6"/><path d="M0,650 L200,570 L400,650 L600,570 L800,650 L1000,570 L1200,650" stroke="#06FFF0"/><path d="M0,800 L200,720 L400,800 L600,720 L800,800 L1000,720 L1200,800" stroke="#8B5CF6"/><path d="M0,950 L200,870 L400,950 L600,870 L800,950 L1000,870 L1200,950" stroke="#06FFF0"/></g>
  <text x="600" y="545" text-anchor="middle" font-family="Arial,sans-serif" font-weight="900" font-size="100" fill="url(#g)" filter="url(#glow)">Von den Highways</text><text x="600" y="655" text-anchor="middle" font-family="Arial,sans-serif" font-weight="900" font-size="100" fill="url(#g)" filter="url(#glow)">nach Visbek</text>
  <text x="600" y="805" text-anchor="middle" font-family="Arial,sans-serif" font-weight="700" font-size="54" fill="#E5E7EB" opacity="0.85">
    Michael Ostermann · Gemischt
  </text>
</svg>