<?xml version="1.0" encoding="UTF-8"?>
<svg xmlns="http://www.w3.org/2000/svg" viewBox="0 0 1200 1200" width="1200" height="1200">
  <defs>
    <linearGradient id="g" x1="0" y1="0" x2="1" y2="1">
      <stop offset="0%" stop-color="#8B5CF6"/>
      <stop offset="100%" stop-color="#06FFF0"/>
    </linearGradient>
    <filter id="glow">
      <feGaussianBlur stdDeviation="8" result="b"/>
      <feMerge><feMergeNode in="b"/><feMergeNode in="SourceGraphic"/></feMerge>
    </filter>
  </defs>
  <rect width="1200" height="1200" fill="#0B0F16"/>
  <g opacity="0.2"><circle cx="698" cy="57" r="12" fill="#8B5CF6"/><circle cx="543" cy="1001" r="2" fill="#06FFF0"/><circle cx="935" cy="559" r="9" fill="#8B5CF6"/><circle cx="1018" cy="430" r="9" fill="#06FFF0"/><circle cx="679" cy="816" r="8" fill="#8B5CF6"/><circle cx="333" cy="906" r="4" fill="#06FFF0"/><circle cx="521" cy="130" r="7" fill="#8B5CF6"/><circle cx="309" cy="454" r="11" fill="#06FFF0"/><circle cx="1083" cy="856" r="6" fill="#8B5CF6"/><circle cx="364" cy="50" r="6" fill="#06FFF0"/><circle cx="902" cy="328" r="2" fill="#8B5CF6"/><circle cx="743" cy="570" r="12" fill="#06FFF0"/><circle cx="114" cy="401" r="4" fill="#8B5CF6"/><circle cx="377" cy="165" r="7" fill="#06FFF0"/><circle cx="509" cy="597" r="8" fill="#8B5CF6"/><circle cx="691" cy="1002" r="8" fill="#06FFF0"/><circle cx="609" cy="750" r="5" fill="#8B5CF6"/><circle cx="801" cy="1086" r="8" fill="#06FFF0"/><circle cx="470" cy="235" r="4" fill="#8B5CF6"/><circle cx="117" cy="611" r="12" fill="#06FFF0"/><circle cx="874" cy="678" r="8" fill="#8B5CF6"/><circle cx="161" cy="623" r="5" fill="#06FFF0"/><circle cx="80" cy="234" r="6" fill="#8B5CF6"/><circle cx="578" cy="543" r="9" fill="#06FFF0"/><circle cx="842" cy="585" r="8" fill="#8B5CF6"/><circle cx="997" cy="373" r="3" fill="#06FFF0"/><circle cx="758" cy="1069" r="2" fill="#8B5CF6"/><circle cx="231" cy="991" r="9" fill="#06FFF0"/><circle cx="1133" cy="900" r="4" fill="#8B5CF6"/><circle cx="1058" cy="297" r="12" fill="#06FFF0"/><circle cx="443" cy="560" r="5" fill="#8B5CF6"/><circle cx="833" cy="546" r="9" fill="#06FFF0"/><circle cx="571" cy="716" r="2" fill="#8B5CF6"/><circle cx="144" cy="407" r="4" fill="#06FFF0"/><circle cx="366" cy="847" r="2" fill="#8B5CF6"/><circle cx="737" cy="702" r="4" fill="#06FFF0"/><circle cx="199" cy="907" r="3" fill="#8B5CF6"/><circle cx="750" cy="234" r="3" fill="#06FFF0"/><circle cx="435" cy="320" r="2" fill="#8B5CF6"/><circle cx="447" cy="292" r="6" fill="#06FFF0"/><circle cx="412" cy="709" r="8" fill="#8B5CF6"/><circle cx="691" cy="270" r="4" fill="#06FFF0"/><circle cx="588" cy="626" r="8" fill="#8B5CF6"/><circle cx="392" cy="885" r="4" fill="#06FFF0"/><circle cx="377" cy="300" r="6" fill="#8B5CF6"/><circle cx="865" cy="788" r="9" fill="#06FFF0"/><circle cx="456" cy="398" r="7" fill="#8B5CF6"/><circle cx="309" cy="1025" r="11" fill="#06FFF0"/><circle cx="1104" cy="81" r="3" fill="#8B5CF6"/><circle cx="524" cy="768" r="2" fill="#06FFF0"/><circle cx="860" cy="765" r="5" fill="#8B5CF6"/><circle cx="333" cy="888" r="12" fill="#06FFF0"/><circle cx="460" cy="824" r="12" fill="#8B5CF6"/><circle cx="997" cy="306" r="5" fill="#06FFF0"/><circle cx="548" cy="435" r="5" fill="#8B5CF6"/><circle cx="1077" cy="1110" r="5" fill="#06FFF0"/><circle cx="248" cy="879" r="3" fill="#8B5CF6"/><circle cx="483" cy="750" r="6" fill="#06FFF0"/><circle cx="927" cy="978" r="7" fill="#8B5CF6"/><circle cx="833" cy="1018" r="2" fill="#06FFF0"/><circle cx="265" cy="966" r="9" fill="#8B5CF6"/><circle cx="334" cy="1098" r="4" fill="#06FFF0"/><circle cx="685" cy="596" r="2" fill="#8B5CF6"/><circle cx="776" cy="812" r="10" fill="#06FFF0"/><circle cx="1006" cy="64" r="11" fill="#8B5CF6"/><circle cx="421" cy="473" r="9" fill="#06FFF0"/><circle cx="915" cy="1079" r="3" fill="#8B5CF6"/><circle cx="545" cy="447" r="8" fill="#06FFF0"/><circle cx="1112" cy="468" r="4" fill="#8B5CF6"/><circle cx="144" cy="849" r="10" fill="#06FFF0"/><circle cx="1030" cy="934" r="5" fill="#8B5CF6"/><circle cx="642" cy="844" r="6" fill="#06FFF0"/><circle cx="866" cy="580" r="8" fill="#8B5CF6"/><circle cx="101" cy="748" r="5" fill="#06FFF0"/><circle cx="1066" cy="92" r="7" fill="#8B5CF6"/><circle cx="485" cy="704" r="6" fill="#06FFF0"/><circle cx="800" cy="196" r="7" fill="#8B5CF6"/><circle cx="100" cy="141" r="8" fill="#06FFF0"/><circle cx="712" cy="691" r="3" fill="#8B5CF6"/><circle cx="501" cy="211" r="11" fill="#06FFF0"/><circle cx="949" cy="987" r="4" fill="#8B5CF6"/><circle cx="803" cy="645" r="8" fill="#06FFF0"/><circle cx="655" cy="1042" r="12" fill="#8B5CF6"/><circle cx="805" cy="1022" r="10" fill="#06FFF0"/><circle cx="446" cy="389" r="7" fill="#8B5CF6"/><circle cx="1001" cy="844" r="11" fill="#06FFF0"/><circle cx="479" cy="1052" r="10" fill="#8B5CF6"/><circle cx="187" cy="1005" r="10" fill="#06FFF0"/><circle cx="1041" cy="647" r="4" fill="#8B5CF6"/><circle cx="226" cy="703" r="9" fill="#06FFF0"/><circle cx="922" cy="254" r="10" fill="#8B5CF6"/><circle cx="677" cy="706" r="7" fill="#06FFF0"/><circle cx="1102" cy="606" r="5" fill="#8B5CF6"/><circle cx="373" cy="760" r="6" fill="#06FFF0"/><circle cx="523" cy="588" r="12" fill="#8B5CF6"/><circle cx="1063" cy="900" r="10" fill="#06FFF0"/><circle cx="807" cy="657" r="11" fill="#8B5CF6"/><circle cx="131" cy="390" r="11" fill="#06FFF0"/><circle cx="171" cy="628" r="6" fill="#8B5CF6"/><circle cx="742" cy="1058" r="12" fill="#06FFF0"/><circle cx="1075" cy="107" r="8" fill="#8B5CF6"/><circle cx="1141" cy="141" r="6" fill="#06FFF0"/><circle cx="152" cy="1116" r="9" fill="#8B5CF6"/><circle cx="1010" cy="952" r="4" fill="#06FFF0"/><circle cx="491" cy="284" r="11" fill="#8B5CF6"/><circle cx="364" cy="69" r="2" fill="#06FFF0"/><circle cx="1041" cy="688" r="9" fill="#8B5CF6"/><circle cx="1048" cy="942" r="6" fill="#06FFF0"/><circle cx="160" cy="688" r="3" fill="#8B5CF6"/><circle cx="705" cy="126" r="9" fill="#06FFF0"/><circle cx="772" cy="387" r="7" fill="#8B5CF6"/><circle cx="1062" cy="82" r="4" fill="#06FFF0"/><circle cx="111" cy="600" r="7" fill="#8B5CF6"/><circle cx="1062" cy="538" r="6" fill="#06FFF0"/><circle cx="133" cy="190" r="4" fill="#8B5CF6"/><circle cx="502" cy="212" r="5" fill="#06FFF0"/><circle cx="911" cy="280" r="12" fill="#8B5CF6"/><circle cx="761" cy="1005" r="5" fill="#06FFF0"/><circle cx="951" cy="515" r="11" fill="#8B5CF6"/><circle cx="949" cy="1043" r="7" fill="#06FFF0"/><circle cx="1009" cy="1021" r="5" fill="#8B5CF6"/><circle cx="618" cy="703" r="11" fill="#06FFF0"/><circle cx="804" cy="640" r="3" fill="#8B5CF6"/><circle cx="401" cy="916" r="7" fill="#06FFF0"/><circle cx="179" cy="1021" r="11" fill="#8B5CF6"/><circle cx="754" cy="946" r="11" fill="#06FFF0"/><circle cx="362" cy="322" r="4" fill="#8B5CF6"/><circle cx="863" cy="368" r="10" fill="#06FFF0"/><circle cx="572" cy="570" r="7" fill="#8B5CF6"/><circle cx="105" cy="1050" r="11" fill="#06FFF0"/><circle cx="307" cy="803" r="12" fill="#8B5CF6"/><circle cx="108" cy="93" r="10" fill="#06FFF0"/><circle cx="642" cy="1032" r="10" fill="#8B5CF6"/><circle cx="593" cy="142" r="3" fill="#06FFF0"/><circle cx="576" cy="966" r="2" fill="#8B5CF6"/><circle cx="286" cy="810" r="2" fill="#06FFF0"/><circle cx="653" cy="420" r="7" fill="#8B5CF6"/><circle cx="466" cy="437" r="8" fill="#06FFF0"/><circle cx="536" cy="861" r="9" fill="#8B5CF6"/><circle cx="219" cy="510" r="7" fill="#06FFF0"/><circle cx="753" cy="256" r="5" fill="#8B5CF6"/><circle cx="274" cy="62" r="6" fill="#06FFF0"/><circle cx="774" cy="833" r="5" fill="#8B5CF6"/><circle cx="456" cy="941" r="5" fill="#06FFF0"/><circle cx="157" cy="785" r="10" fill="#8B5CF6"/><circle cx="824" cy="354" r="11" fill="#06FFF0"/><circle cx="598" cy="716" r="6" fill="#8B5CF6"/><circle cx="1053" cy="243" r="10" fill="#06FFF0"/><circle cx="438" cy="1056" r="7" fill="#8B5CF6"/><circle cx="313" cy="614" r="8" fill="#06FFF0"/></g>
  <text x="600" y="545" text-anchor="middle" font-family="Arial,sans-serif" font-weight="900" font-size="100" fill="url(#g)" filter="url(#glow)">20 Jahre RDMC</text><text x="600" y="655" text-anchor="middle" font-family="Arial,sans-serif" font-weight="900" font-size="100" fill="url(#g)" filter="url(#glow)">Oldenburg</text>
  <text x="600" y="805" text-anchor="middle" font-family="Arial,sans-serif" font-weight="700" font-size="54" fill="#E5E7EB" opacity="0.85">
    Michael Ostermann · Gemischt
  </text>
</svg>