<svg viewBox="0 0 400 400" xmlns="http://www.w3.org/2000/svg">
  <defs>
    <linearGradient id="bgGrad7" x1="0%" y1="0%" x2="100%" y2="100%">
      <stop offset="0%" style="stop-color:#FFF8DC;stop-opacity:1" />
      <stop offset="100%" style="stop-color:#FFE4B5;stop-opacity:1" />
    </linearGradient>
    <linearGradient id="crownGrad" x1="0%" y1="0%" x2="100%" y2="100%">
      <stop offset="0%" style="stop-color:#FFD700;stop-opacity:1" />
      <stop offset="50%" style="stop-color:#FFA500;stop-opacity:1" />
      <stop offset="100%" style="stop-color:#FFD700;stop-opacity:1" />
    </linearGradient>
    <linearGradient id="warmGrad" x1="0%" y1="0%" x2="100%" y2="100%">
      <stop offset="0%" style="stop-color:#FF6B6B;stop-opacity:0.3" />
      <stop offset="100%" style="stop-color:#FFA500;stop-opacity:0.3" />
    </linearGradient>
    <filter id="glow7">
      <feGaussianBlur stdDeviation="6" result="coloredBlur"/>
      <feMerge>
        <feMergeNode in="coloredBlur"/>
        <feMergeNode in="SourceGraphic"/>
      </feMerge>
    </filter>
  </defs>
  
  <rect width="400" height="400" fill="url(#bgGrad7)"/>
  
  <!-- Soft Clouds -->
  <g opacity="0.3" fill="#fff">
    <ellipse cx="80" cy="60" rx="50" ry="30"/>
    <ellipse cx="120" cy="50" rx="40" ry="25"/>
    <ellipse cx="320" cy="80" rx="45" ry="28"/>
    <ellipse cx="280" cy="70" rx="38" ry="22"/>
  </g>
  
  <!-- Golden Crown (Center) -->
  <g transform="translate(200, 160)" filter="url(#glow7)">
    <path d="M-60,30 L-40,-20 L-20,10 L0,-30 L20,10 L40,-20 L60,30 L50,60 L-50,60 Z" 
          fill="url(#crownGrad)" stroke="#FF8C00" stroke-width="3"/>
    <!-- Jewels -->
    <circle cx="-40" cy="-5" r="8" fill="#FF1493"/>
    <circle cx="0" cy="-15" r="10" fill="#00CED1"/>
    <circle cx="40" cy="-5" r="8" fill="#FF1493"/>
    <!-- Crown Details -->
    <path d="M-50,60 L-40,40 L-30,60 M-20,60 L-10,40 L0,60 M10,60 L20,40 L30,60 M40,60 L50,40 L60,60" 
          stroke="#FFD700" stroke-width="2" fill="none"/>
  </g>
  
  <!-- Little Prince Silhouette -->
  <g transform="translate(200, 280)">
    <!-- Head -->
    <circle cx="0" cy="-40" r="25" fill="#FFB6C1" stroke="#FF69B4" stroke-width="2"/>
    <!-- Body -->
    <rect x="-18" y="-20" width="36" height="45" rx="5" fill="#87CEEB" stroke="#4682B4" stroke-width="2"/>
    <!-- Arms -->
    <rect x="-30" y="-15" width="12" height="8" rx="4" fill="#FFB6C1"/>
    <rect x="18" y="-15" width="12" height="8" rx="4" fill="#FFB6C1"/>
    <!-- Legs -->
    <rect x="-15" y="25" width="10" height="20" rx="3" fill="#4682B4"/>
    <rect x="5" y="25" width="10" height="20" rx="3" fill="#4682B4"/>
    <!-- Face (Simple) -->
    <circle cx="-8" cy="-43" r="3" fill="#000"/>
    <circle cx="8" cy="-43" r="3" fill="#000"/>
    <path d="M-6,-32 Q0,-28 6,-32" stroke="#FF69B4" stroke-width="2" fill="none"/>
  </g>
  
  <!-- Stars -->
  <g fill="#FFD700" filter="url(#glow7)">
    <path d="M100,120 L103,128 L112,128 L105,134 L108,143 L100,137 L92,143 L95,134 L88,128 L97,128 Z"/>
    <path d="M320,140 L323,148 L332,148 L325,154 L328,163 L320,157 L312,163 L315,154 L308,148 L317,148 Z"/>
    <path d="M80,300 L82,306 L88,306 L83,310 L85,316 L80,312 L75,316 L77,310 L72,306 L78,306 Z"/>
    <path d="M330,280 L332,286 L338,286 L333,290 L335,296 L330,292 L325,296 L327,290 L322,286 L328,286 Z"/>
  </g>
  
  <!-- Hearts (Floating) -->
  <g fill="#FF69B4" opacity="0.5">
    <path d="M120,200 L110,190 C108,185 112,180 117,180 C120,180 122,182 120,185 C118,182 116,180 113,180 C110,180 108,185 110,188 Z"/>
    <path d="M290,220 L280,210 C278,205 282,200 287,200 C290,200 292,202 290,205 C288,202 286,200 283,200 C280,200 278,205 280,208 Z"/>
  </g>
  
  <!-- Title Banner -->
  <rect x="60" y="350" width="280" height="38" rx="8" fill="rgba(255,215,0,0.7)" filter="url(#glow7)"/>
  <text x="200" y="376" font-family="'Comic Sans MS', cursive" font-weight="900" font-size="22" fill="#8B4513" text-anchor="middle">MEIN KLEINER KÖNIG</text>
</svg>
