<svg xmlns="http://www.w3.org/2000/svg" width="1200" height="720" viewBox="0 0 1200 720" fill="none">
  <defs>
    <linearGradient id="g1" x1="0" y1="0" x2="1" y2="1">
      <stop offset="0" stop-color="#FF6B00"/>
      <stop offset="1" stop-color="#FF1493"/>
    </linearGradient>
    <linearGradient id="g2" x1="0" y1="0" x2="1" y2="0">
      <stop offset="0" stop-color="#06FFF0" stop-opacity="0.15"/>
      <stop offset="1" stop-color="#8B5CF6" stop-opacity="0.15"/>
    </linearGradient>
  </defs>
  <rect width="1200" height="720" fill="#0B0F16"/>
  <circle cx="1000" cy="-40" r="420" fill="url(#g2)"/>
  <circle cx="-40" cy="80" r="420" fill="url(#g2)"/>
  <g font-family="Inter, Arial" fill="#fff">
    <text x="80" y="170" font-size="52" font-weight="800">Business Pro Landing</text>
    <text x="80" y="225" font-size="20" fill="#cfd3da">Elegantes Business-Template – Hero, Trust, Leistungen, Referenzen, Pricing, CTA</text>
  </g>
  <rect x="80" y="280" width="1040" height="280" rx="14" fill="#101726" stroke="rgba(255,255,255,0.12)"/>
  <rect x="100" y="300" width="560" height="80" rx="10" fill="#0f1420" stroke="rgba(255,255,255,0.1)"/>
  <rect x="100" y="392" width="280" height="40" rx="10" fill="#0f1420" stroke="rgba(255,255,255,0.1)"/>
  <rect x="392" y="392" width="180" height="40" rx="10" fill="url(#g1)"/>
  <rect x="700" y="300" width="400" height="240" rx="12" fill="#0f1420" stroke="rgba(255,255,255,0.1)"/>
  <rect x="100" y="480" width="200" height="60" rx="10" fill="#0f1420" stroke="rgba(255,255,255,0.1)"/>
  <g>
    <rect x="80" y="580" width="240" height="90" rx="12" fill="#101726" stroke="rgba(255,255,255,0.12)"/>
    <rect x="340" y="580" width="240" height="90" rx="12" fill="#101726" stroke="rgba(255,255,255,0.12)"/>
    <rect x="600" y="580" width="240" height="90" rx="12" fill="#101726" stroke="rgba(255,255,255,0.12)"/>
    <rect x="860" y="580" width="240" height="90" rx="12" fill="#101726" stroke="rgba(255,255,255,0.12)"/>
  </g>
  <text x="80" y="690" font-family="Inter, Arial" font-size="12" fill="#8a92a6">© 2025 Code & Beats</text>
</svg>