<svg xmlns="http://www.w3.org/2000/svg" viewBox="0 0 1440 260" preserveAspectRatio="none">
  <defs>
    <linearGradient id="wave" x1="0%" y1="0%" x2="100%" y2="0%">
      <stop offset="0%" stop-color="rgba(45,227,209,0.6)" />
      <stop offset="100%" stop-color="rgba(92,92,255,0.35)" />
    </linearGradient>
  </defs>
  <path fill="url(#wave)" d="M0,192L48,170.7C96,149,192,107,288,85.3C384,64,480,64,576,80C672,96,768,128,864,149.3C960,171,1056,181,1152,181.3C1248,181,1344,171,1392,165.3L1440,160L1440,260L1392,260C1344,260,1248,260,1152,260C1056,260,960,260,864,260C768,260,672,260,576,260C480,260,384,260,288,260C192,260,96,260,48,260L0,260Z"/>
</svg>

















