<svg xmlns="http://www.w3.org/2000/svg" viewBox="0 0 640 520" role="img" aria-labelledby="heroTitle">
  <title id="heroTitle">Studio Illustration</title>
  <defs>
    <linearGradient id="bg" x1="0" y1="0" x2="1" y2="1">
      <stop offset="0" stop-color="#10152e"/>
      <stop offset="1" stop-color="#1c2550"/>
    </linearGradient>
    <linearGradient id="pulse" x1="0" y1="0" x2="1" y2="0">
      <stop offset="0" stop-color="#2de3d1"/>
      <stop offset="1" stop-color="#5c5cff"/>
    </linearGradient>
    <radialGradient id="glow" cx="50%" cy="40%" r="60%">
      <stop offset="0%" stop-color="rgba(92,92,255,0.45)"/>
      <stop offset="100%" stop-color="rgba(92,92,255,0)"/>
    </radialGradient>
  </defs>
  <rect width="640" height="520" rx="32" fill="url(#bg)"/>
  <rect x="40" y="80" width="560" height="360" rx="28" fill="#0b1026"/>
  <rect x="80" y="120" width="220" height="280" rx="20" fill="#151c3f"/>
  <rect x="360" y="120" width="220" height="280" rx="20" fill="#151c3f"/>
  <circle cx="280" cy="120" r="120" fill="url(#glow)"/>
  <rect x="100" y="150" width="180" height="16" rx="8" fill="#2de3d1" opacity="0.8"/>
  <rect x="100" y="190" width="160" height="12" rx="6" fill="#5c5cff" opacity="0.6"/>
  <rect x="100" y="230" width="140" height="12" rx="6" fill="#2de3d1" opacity="0.5"/>
  <rect x="100" y="270" width="160" height="12" rx="6" fill="#5c5cff" opacity="0.4"/>
  <rect x="100" y="310" width="120" height="12" rx="6" fill="#2de3d1" opacity="0.4"/>
  <rect x="380" y="150" width="180" height="140" rx="16" fill="#111731"/>
  <path d="M400 220c30-42 52-42 82 0s52 42 82 0" fill="none" stroke="url(#pulse)" stroke-width="8" stroke-linecap="round" stroke-linejoin="round"/>
  <rect x="400" y="320" width="168" height="12" rx="6" fill="#2de3d1" opacity="0.6"/>
  <rect x="400" y="350" width="120" height="12" rx="6" fill="#5c5cff" opacity="0.4"/>
  <rect x="80" y="440" width="500" height="24" rx="12" fill="rgba(45,227,209,0.25)"/>
  <circle cx="240" cy="400" r="32" fill="#2de3d1" opacity="0.6"/>
  <circle cx="440" cy="220" r="10" fill="#2de3d1"/>
  <circle cx="520" cy="220" r="10" fill="#5c5cff"/>
  <circle cx="480" cy="260" r="10" fill="#2de3d1"/>
  <path d="M120 420c40-20 60-20 100 0s60 20 100 0" fill="none" stroke="#2de3d1" stroke-width="6" stroke-linecap="round" opacity="0.35"/>
  <path d="M340 420c40-20 60-20 100 0s60 20 100 0" fill="none" stroke="#5c5cff" stroke-width="6" stroke-linecap="round" opacity="0.35"/>
</svg>

















