<svg xmlns="http://www.w3.org/2000/svg" viewBox="0 0 640 360" role="img" aria-labelledby="aiwaveTitle">
  <title id="aiwaveTitle">AIWave Orchestrator Dashboard</title>
  <defs>
    <linearGradient id="bg" x1="0" y1="0" x2="1" y2="1">
      <stop offset="0" stop-color="#10142f"/>
      <stop offset="1" stop-color="#1a2150"/>
    </linearGradient>
    <linearGradient id="accent" x1="0" y1="0" x2="1" y2="1">
      <stop offset="0" stop-color="#5c5cff"/>
      <stop offset="1" stop-color="#2de3d1"/>
    </linearGradient>
  </defs>
  <rect width="640" height="360" rx="28" fill="url(#bg)"/>
  <rect x="80" y="70" width="480" height="220" rx="22" fill="#14183a" stroke="rgba(255,255,255,0.08)" stroke-width="2"/>
  <rect x="110" y="100" width="120" height="18" rx="9" fill="#2de3d1" opacity="0.6"/>
  <rect x="110" y="130" width="90" height="12" rx="6" fill="#5c5cff" opacity="0.5"/>
  <rect x="110" y="154" width="140" height="12" rx="6" fill="#8a7bff" opacity="0.4"/>
  <rect x="110" y="178" width="120" height="12" rx="6" fill="#2de3d1" opacity="0.4"/>
  <rect x="260" y="110" width="270" height="140" rx="18" fill="#10142f" stroke="rgba(255,255,255,0.05)" stroke-width="2"/>
  <path d="M290 220c32-36 64-36 96 0s64 36 96 0" fill="none" stroke="rgba(92,92,255,0.35)" stroke-width="12" stroke-linecap="round"/>
  <path d="M290 182c32-28 64-28 96 0s64 28 96 0" fill="none" stroke="url(#accent)" stroke-width="8" stroke-linecap="round"/>
  <polyline points="290,210 330,170 370,182 410,150 450,176 490,140" fill="none" stroke="#2de3d1" stroke-width="6" stroke-linejoin="round"/>
  <circle cx="290" cy="210" r="5" fill="#2de3d1"/>
  <circle cx="330" cy="170" r="5" fill="#2de3d1"/>
  <circle cx="370" cy="182" r="5" fill="#2de3d1"/>
  <circle cx="410" cy="150" r="5" fill="#2de3d1"/>
  <circle cx="450" cy="176" r="5" fill="#2de3d1"/>
  <circle cx="490" cy="140" r="5" fill="#2de3d1"/>
  <rect x="110" y="220" width="120" height="12" rx="6" fill="#5c5cff" opacity="0.5"/>
  <rect x="120" y="250" width="460" height="8" rx="4" fill="rgba(255,255,255,0.08)"/>
  <rect x="120" y="264" width="360" height="8" rx="4" fill="rgba(92,92,255,0.3)"/>
</svg>

















